<svg id="Ebene_1" data-name="Ebene 1" xmlns="http://www.w3.org/2000/svg" viewBox="0 0 175 175"><defs><style>.cls-1,.cls-2,.cls-3,.cls-4{fill:none;stroke:#34495e;}.cls-1{stroke-miterlimit:10;}.cls-1,.cls-3{stroke-width:1.5px;}.cls-2,.cls-3,.cls-4{stroke-linecap:round;stroke-linejoin:round;}.cls-4{stroke-width:0.75px;}</style></defs><title>graphics</title><rect class="cls-1" x="25.32" y="116.03" width="13.45" height="13.45" rx="1.75" ry="1.75"/><line class="cls-2" x1="42.28" y1="117.79" x2="56.31" y2="117.79"/><line class="cls-2" x1="42.28" y1="121.3" x2="55.44" y2="121.3"/><line class="cls-2" x1="42.28" y1="124.81" x2="52.81" y2="124.81"/><rect class="cls-1" x="25.32" y="134.75" width="13.45" height="13.45" rx="1.75" ry="1.75"/><line class="cls-2" x1="42.28" y1="136.5" x2="56.31" y2="136.5"/><line class="cls-2" x1="42.28" y1="140.01" x2="55.44" y2="140.01"/><line class="cls-2" x1="42.28" y1="143.52" x2="52.81" y2="143.52"/><rect class="cls-1" x="25.32" y="153.46" width="13.45" height="13.45" rx="1.75" ry="1.75"/><line class="cls-2" x1="42.28" y1="155.21" x2="56.31" y2="155.21"/><line class="cls-2" x1="42.28" y1="158.72" x2="55.44" y2="158.72"/><line class="cls-2" x1="42.28" y1="162.23" x2="52.81" y2="162.23"/><rect class="cls-1" x="63.33" y="116.03" width="13.45" height="13.45" rx="1.75" ry="1.75"/><line class="cls-2" x1="80.29" y1="117.79" x2="94.32" y2="117.79"/><line class="cls-2" x1="80.29" y1="121.3" x2="93.45" y2="121.3"/><line class="cls-2" x1="80.29" y1="124.81" x2="90.81" y2="124.81"/><rect class="cls-1" x="63.33" y="134.75" width="13.45" height="13.45" rx="1.75" ry="1.75"/><line class="cls-2" x1="80.29" y1="136.5" x2="94.32" y2="136.5"/><line class="cls-2" x1="80.29" y1="140.01" x2="93.45" y2="140.01"/><line class="cls-2" x1="80.29" y1="143.52" x2="90.81" y2="143.52"/><rect class="cls-1" x="63.33" y="153.46" width="13.45" height="13.45" rx="1.75" ry="1.75"/><line class="cls-2" x1="80.29" y1="155.21" x2="94.32" y2="155.21"/><line class="cls-2" x1="80.29" y1="158.72" x2="93.45" y2="158.72"/><line class="cls-2" x1="80.29" y1="162.23" x2="90.81" y2="162.23"/><path class="cls-2" d="M169.08,105.63h-58a2,2,0,0,1-2-2v-58"/><line class="cls-3" x1="118.08" y1="64.4" x2="127.24" y2="55.25"/><line class="cls-3" x1="118.08" y1="55.25" x2="127.24" y2="64.4"/><line class="cls-3" x1="118.08" y1="97.97" x2="127.24" y2="88.81"/><line class="cls-3" x1="118.08" y1="88.81" x2="127.24" y2="97.97"/><line class="cls-3" x1="152.26" y1="64.4" x2="161.42" y2="55.25"/><line class="cls-3" x1="152.26" y1="55.25" x2="161.42" y2="64.4"/><line class="cls-3" x1="134.87" y1="81.79" x2="144.02" y2="72.64"/><line class="cls-3" x1="134.87" y1="72.64" x2="144.02" y2="81.79"/><line class="cls-3" x1="152.26" y1="97.97" x2="161.42" y2="88.81"/><line class="cls-3" x1="152.26" y1="88.81" x2="161.42" y2="97.97"/><path class="cls-2" d="M67.57,67.88h-58a2,2,0,0,1-2-2v-58"/><path class="cls-3" d="M12.65,46.71s15.8.75,23.18-2.33A45.2,45.2,0,0,0,51.5,34.1c6-5.78,7-6.5,11-6.5"/><path class="cls-3" d="M12.65,32.67s6-10.49,15.5-4c6.35,4.35,10,20,17,20.5,9.18.66,9.5-8.59,17.34-8.59"/><line class="cls-4" x1="7.57" y1="14.13" x2="5.07" y2="14.13"/><line class="cls-4" x1="7.57" y1="23.63" x2="5.07" y2="23.63"/><line class="cls-4" x1="7.57" y1="33.13" x2="5.07" y2="33.13"/><line class="cls-4" x1="7.57" y1="42.63" x2="5.07" y2="42.63"/><line class="cls-4" x1="7.57" y1="52.13" x2="5.07" y2="52.13"/><line class="cls-4" x1="7.57" y1="61.63" x2="5.07" y2="61.63"/><line class="cls-4" x1="61.32" y1="70.38" x2="61.32" y2="67.88"/><line class="cls-4" x1="51.82" y1="70.38" x2="51.82" y2="67.88"/><line class="cls-4" x1="42.32" y1="70.38" x2="42.32" y2="67.88"/><line class="cls-4" x1="32.82" y1="70.38" x2="32.82" y2="67.88"/><line class="cls-4" x1="23.32" y1="70.38" x2="23.32" y2="67.88"/><line class="cls-4" x1="13.82" y1="70.38" x2="13.82" y2="67.88"/></svg>