<svg xmlns="http://www.w3.org/2000/svg" id="Ebene_1" data-name="Ebene 1" viewBox="0 0 70 70"><defs><style>.cls-1,.cls-2{fill:none}.cls-1,.cls-2,.cls-3{stroke:#34495e;stroke-linecap:round;stroke-linejoin:round}.cls-2,.cls-3{stroke-width:1.5px}.cls-3{fill:#f7f7f7}</style></defs><title>graphics</title><circle cx="44.55" cy="44.52" r="4.21" class="cls-1"/><path d="M23.5 40.98h8.71v8.71H23.5z" class="cls-1" transform="rotate(-45 27.86 45.34)"/><path d="M1.85 33.3h66.3" class="cls-1"/><circle cx="20.11" cy="11.49" r="4.49" class="cls-2"/><circle cx="48.77" cy="13.08" r="4.49" class="cls-2"/><path d="M24.61 27.87c3.74 4.78-1.5 13.58 2.15 15 2.13.82 5.43-6.41 5.43-12.83 0-5.74-1.68-10.4-11.24-10.4-9.83 0-13.48 4.66-13.48 10.4S13 43.51 16.55 42.78c2.48-.52-.56-5.54-2.9-9.48-1.45-2.44 1-5.33 1.5-5.33M44 29c-3.75 4.77 1.5 13.57-2.15 15-2.14.82-5.44-6.4-5.44-12.83 0-5.74 1.69-10.39 11.24-10.39 9.83 0 13.49 4.65 13.49 10.39s-4.64 13.2-9.08 12.75c-3.07-.31.55-5.54 2.9-9.47 1.45-2.44-1.05-5.34-1.5-5.34" class="cls-3"/><circle cx="14.49" cy="56.85" r="4.21" class="cls-1"/><path d="M52.14 52.22h8.71v8.71h-8.71z" class="cls-1" transform="rotate(-45 56.496 56.579)"/><path d="M35.59 53.06l-4.67 9.95 10.95-.93-6.28-9.02z" class="cls-1"/></svg>