<svg xmlns="http://www.w3.org/2000/svg" id="Ebene_1" data-name="Ebene 1" viewBox="0 0 175 175"><defs><style>.cls-1,.cls-2,.cls-3,.cls-4{fill:none;stroke:#34495e}.cls-1{stroke-miterlimit:10}.cls-1,.cls-3{stroke-width:1.5px}.cls-2,.cls-3,.cls-4{stroke-linecap:round;stroke-linejoin:round}.cls-4{stroke-width:.75px}</style></defs><title>graphics</title><rect width="13.45" height="13.45" x="25.32" y="116.03" class="cls-1" rx="1.75" ry="1.75"/><path d="M42.28 117.79h14.03M42.28 121.3h13.16M42.28 124.81h10.53" class="cls-2"/><rect width="13.45" height="13.45" x="25.32" y="134.75" class="cls-1" rx="1.75" ry="1.75"/><path d="M42.28 136.5h14.03M42.28 140.01h13.16M42.28 143.52h10.53" class="cls-2"/><rect width="13.45" height="13.45" x="25.32" y="153.46" class="cls-1" rx="1.75" ry="1.75"/><path d="M42.28 155.21h14.03M42.28 158.72h13.16M42.28 162.23h10.53" class="cls-2"/><rect width="13.45" height="13.45" x="63.33" y="116.03" class="cls-1" rx="1.75" ry="1.75"/><path d="M80.29 117.79h14.03M80.29 121.3h13.16M80.29 124.81h10.52" class="cls-2"/><rect width="13.45" height="13.45" x="63.33" y="134.75" class="cls-1" rx="1.75" ry="1.75"/><path d="M80.29 136.5h14.03M80.29 140.01h13.16M80.29 143.52h10.52" class="cls-2"/><rect width="13.45" height="13.45" x="63.33" y="153.46" class="cls-1" rx="1.75" ry="1.75"/><path d="M80.29 155.21h14.03M80.29 158.72h13.16M80.29 162.23h10.52M169.08 105.63h-58a2 2 0 01-2-2v-58" class="cls-2"/><path d="M118.08 64.4l9.16-9.15M118.08 55.25l9.16 9.15M118.08 97.97l9.16-9.16M118.08 88.81l9.16 9.16M152.26 64.4l9.16-9.15M152.26 55.25l9.16 9.15M134.87 81.79l9.15-9.15M134.87 72.64l9.15 9.15M152.26 97.97l9.16-9.16M152.26 88.81l9.16 9.16" class="cls-3"/><path d="M67.57 67.88h-58a2 2 0 0 1-2-2v-58" class="cls-2"/><path d="M12.65 46.71s15.8.75 23.18-2.33A45.2 45.2 0 0 0 51.5 34.1c6-5.78 7-6.5 11-6.5" class="cls-3"/><path d="M12.65 32.67s6-10.49 15.5-4c6.35 4.35 10 20 17 20.5 9.18.66 9.5-8.59 17.34-8.59" class="cls-3"/><path d="M7.57 14.13h-2.5M7.57 23.63h-2.5M7.57 33.13h-2.5M7.57 42.63h-2.5M7.57 52.13h-2.5M7.57 61.63h-2.5M61.32 70.38v-2.5M51.82 70.38v-2.5M42.32 70.38v-2.5M32.82 70.38v-2.5M23.32 70.38v-2.5M13.82 70.38v-2.5" class="cls-4"/></svg>