<svg id="Ebene_1" data-name="Ebene 1" xmlns="http://www.w3.org/2000/svg" viewBox="0 0 70 70"><defs><style>.cls-1,.cls-2{fill:none;}.cls-1,.cls-2,.cls-3{stroke:#34495e;stroke-linecap:round;stroke-linejoin:round;}.cls-2,.cls-3{stroke-width:1.5px;}.cls-3{fill:#f7f7f7;}</style></defs><title>graphics</title><circle class="cls-1" cx="44.55" cy="44.52" r="4.21"/><rect class="cls-1" x="23.5" y="40.98" width="8.71" height="8.71" transform="translate(-23.9 32.98) rotate(-45)"/><line class="cls-1" x1="1.85" y1="33.3" x2="68.15" y2="33.3"/><circle class="cls-2" cx="20.11" cy="11.49" r="4.49"/><circle class="cls-2" cx="48.77" cy="13.08" r="4.49"/><path class="cls-3" d="M24.61,27.87c3.74,4.78-1.5,13.58,2.15,15,2.13.82,5.43-6.41,5.43-12.83,0-5.74-1.68-10.4-11.24-10.4-9.83,0-13.48,4.66-13.48,10.4S13,43.51,16.55,42.78c2.48-.52-.56-5.54-2.9-9.48-1.45-2.44,1-5.33,1.5-5.33"/><path class="cls-3" d="M44,29c-3.75,4.77,1.5,13.57-2.15,15-2.14.82-5.44-6.4-5.44-12.83,0-5.74,1.69-10.39,11.24-10.39,9.83,0,13.49,4.65,13.49,10.39s-4.64,13.2-9.08,12.75c-3.07-.31.55-5.54,2.9-9.47,1.45-2.44-1.05-5.34-1.5-5.34"/><circle class="cls-1" cx="14.49" cy="56.85" r="4.21"/><rect class="cls-1" x="52.14" y="52.22" width="8.71" height="8.71" transform="translate(-23.46 56.52) rotate(-45)"/><polygon class="cls-1" points="35.59 53.06 30.92 63.01 41.87 62.08 35.59 53.06"/></svg>