<svg xmlns="http://www.w3.org/2000/svg" viewBox="0 0 633 279.7"><style>.st0{fill:#00d29a}.st1{fill:url(#SVGID_1_)}.st2{fill:url(#SVGID_2_)}</style><g id="Layer_2"><path d="M75.3 183.8c35.2-28.4 80.2-45.5 129.3-45.7H0l75.3 45.7zM96.4 119h67.4c.8 0 1.4-.6 1.4-1.4v-17.4c0-.8-.6-1.4-1.4-1.4h-43.6c-.8 0-1.4-.6-1.4-1.4V78c0-.8.6-1.4 1.4-1.4h32.1c.8 0 1.4-.6 1.4-1.4V58.6c0-.8-.6-1.4-1.4-1.4h-32.1c-.8 0-1.4-.6-1.4-1.4V38.1c0-.8.6-1.4 1.4-1.4h43.6c.8 0 1.4-.6 1.4-1.4V18.1c0-.8-.6-1.4-1.4-1.4H96.4c-.8 0-1.4.6-1.4 1.4v99.5c0 .8.6 1.4 1.4 1.4zM13.7 112.3c7.8 5.5 18.5 8.4 30.8 8.4 11.4 0 21.6-3 28.7-8.5 7.5-5.8 11.5-14 11.5-23.8 0-15-8.9-24.4-27.2-28.7l-21.1-4.8c-7-1.5-10.5-5-10.5-10.4 0-6.8 6.1-11.3 15.5-11.3 10.1 0 15 4.9 17.5 9.6.2.5.7.7 1.2.7h21.2c.9 0 1.6-.9 1.4-1.7-2-7.2-6-13.4-11.8-17.9-7.5-5.9-17.7-9-29.7-9-11.2 0-21.4 3.2-28.5 9C5.6 29.9 1.8 38 1.8 47.5c0 14.8 8.6 23.8 26.2 27.7l20.7 4.3c6.1 1.4 11.8 3.6 11.8 10.7 0 7.4-6.5 12.1-16.6 12.1-9 0-15.5-3.6-18.5-10.1-.2-.5-.7-.8-1.3-.8H1.4c-.9 0-1.6.9-1.3 1.8 2.3 7.9 7 14.5 13.6 19.1zM203.4 16.7h-21.6c-.8 0-1.4.6-1.4 1.4v99.5c0 .8.6 1.4 1.4 1.4h21.6c.8 0 1.4-.6 1.4-1.4V18.1c0-.8-.6-1.4-1.4-1.4z" class="st0"/><linearGradient id="SVGID_1_" x1="75.552" x2="249.966" y1="146.25" y2="59.367" gradientTransform="matrix(1 0 0 -1 0 282)" gradientUnits="userSpaceOnUse"><stop offset="0" stop-color="#00d29a" stop-opacity="0"/><stop offset="1" stop-color="#00d29a"/></linearGradient><path d="M205.5 138.1h-1c-26.1-.5-53.6 5.5-77.9 15.4-18.4 7.5-36 17.9-51.3 30.3 43.4 26.4 86.8 52.7 130.2 79.1V138.1z" class="st1"/><linearGradient id="SVGID_2_" x1="37.718" x2="36.21" y1="13.711" y2="145.717" gradientTransform="matrix(1 0 0 -1 0 282)" gradientUnits="userSpaceOnUse"><stop offset="0" stop-color="#00d29a" stop-opacity="0"/><stop offset="1" stop-color="#00d29a"/></linearGradient><path d="M0 138.1V340h.1c0-62.9 29.3-119.1 75.2-156.2L0 138.1z" class="st2"/><path d="M496.9 233.9c4.1 0 6.3 3 6.4 6.7h-13.9c1-4.4 3.7-6.7 7.5-6.7m6.8 16.8c-.8 3.1-3.3 4.5-6.7 4.5-4.4 0-7.5-3.2-7.8-8.6h23.9v-3.1c0-10.5-5.8-17.8-16.3-17.8-10 0-17.2 7.9-17.2 18.8 0 11.1 7 18.7 17.4 18.7 9 0 14.6-4.9 15.9-12.5h-9.2zm-47 .9c0 7.9 4.6 11.6 11.9 11.6 2.6 0 5-.4 6.4-1.1v-8.8c-1.1.7-2.8 1.2-4.3 1.2-2.6 0-4.1-1.3-4.1-4.1v-15.7h7.9v-8h-7.9v-11.1h-9.9v11.1h-5.4v8h5.4v16.9zm-10.7-25h-10v22.8c-.7 3.1-3.4 5-6.4 5-3.9 0-5.8-2.6-5.8-6.3v-21.4h-9.9V250c0 7.9 4.6 13.3 12.6 13.3 4.2 0 7.6-1.9 9.6-4.1v3.3h9.9v-35.9zm-57.2 25c0 7.9 4.6 11.6 11.9 11.6 2.6 0 5-.4 6.4-1.1v-8.8c-1.1.7-2.8 1.2-4.3 1.2-2.6 0-4.1-1.3-4.1-4.1v-15.7h7.9v-8h-7.9v-11.1h-9.9v11.1h-5.4v8h5.4v16.9zm-9.9-35.4c0-3.3-2.7-5.7-5.9-5.7s-5.9 2.4-5.9 5.7c0 3.4 2.7 5.7 5.9 5.7 3.1 0 5.9-2.3 5.9-5.7m-.9 10.4h-10v35.9h9.9v-35.9zm-35.5 25c0 7.9 4.6 11.6 11.9 11.6 2.6 0 5-.4 6.4-1.1v-8.8c-1.1.7-2.8 1.2-4.3 1.2-2.6 0-4.1-1.3-4.1-4.1v-15.7h7.9v-8h-7.9v-11.1h-9.9v11.1H337v8h5.5v16.9zm-39.5.2c1 7.3 7.2 11.5 16 11.5 8.3 0 14.7-4.3 14.7-11.6 0-5.5-3.3-8.9-9.5-10.4l-7.4-1.7c-2.2-.6-3.2-1.4-3.2-2.8 0-2.2 2.3-3.4 4.7-3.4 3.3 0 5 1.5 5.6 3.5h9.5c-1.2-6.7-6.2-11.1-15.2-11.1-8 0-14.3 4.7-14.3 11.6 0 6 3.8 8.8 9.3 10.1l7.2 1.6c2.5.6 3.6 1.5 3.6 3.1 0 2.3-2 3.5-5 3.5s-5.2-1.4-6-3.9h-10zm-38.2 10.7h9.9v-22.7c.8-3.1 3.4-5 6.5-5 3.9 0 5.9 2.6 5.9 6.3v21.4h9.9V239c0-8-4.6-13.3-12.7-13.3-4.2 0-7.7 1.8-9.6 4.1v-3.3h-9.9v36zm-8.9-52h-10.3v52h10.3v-52zM614.7 181c0 7.9 4.6 11.6 11.9 11.6 2.6 0 5-.4 6.4-1.1v-8.8c-1.1.7-2.8 1.2-4.3 1.2-2.6 0-4.1-1.3-4.1-4.1V164h7.9v-8h-7.9v-11.1h-9.9V156h-5.5v8h5.5v17zm-41 10.9h9.9v-22.7c.8-3.1 3.4-5 6.5-5 3.9 0 5.9 2.6 5.9 6.3v21.4h9.9v-23.4c0-7.9-4.6-13.3-12.7-13.3-4.2 0-7.7 1.8-9.6 4.1V156h-9.9v35.9zm-20.9-28.6c4.1 0 6.3 3 6.4 6.7h-13.9c.9-4.4 3.6-6.7 7.5-6.7m6.7 16.8c-.8 3.1-3.3 4.5-6.7 4.5-4.4 0-7.5-3.2-7.8-8.6h23.9v-3c0-10.5-5.8-17.8-16.3-17.8-10 0-17.2 7.9-17.2 18.8 0 11.1 7 18.7 17.4 18.7 9 0 14.6-4.9 15.9-12.5l-9.2-.1zm-51.1-20.4c-2-2.6-5.4-4.6-9.6-4.6-4 0-7.3 1.5-9.1 3.8v-3h-9.9v35.9h9.9v-23.1c.6-3.1 3-4.7 5.6-4.7 3.4 0 5 2.6 5 6.4v21.4h10v-23.1c.6-3.1 3-4.7 5.5-4.7 3.4 0 5.1 2.6 5.1 6.4v21.4h10v-23.4c0-8.1-4.4-13.3-11.8-13.3-4.9 0-8.4 2.1-10.7 4.6m-67.5 32.2h9.9v-22.7c.8-3.1 3.4-5 6.5-5 3.9 0 5.9 2.6 5.9 6.3v21.4h9.9v-23.4c0-7.9-4.6-13.3-12.7-13.3-4.2 0-7.7 1.8-9.6 4.1V156h-9.9v35.9zm-14.6-18c0 5.9-2.7 10.3-7.7 10.3s-7.7-4.3-7.7-10.3c0-6 2.7-10.4 7.7-10.4s7.7 4.4 7.7 10.4m9.9 0c0-11.1-7.1-18.8-17.6-18.8s-17.6 7.7-17.6 18.8c0 11 7.1 18.7 17.6 18.7s17.6-7.6 17.6-18.7m-36.8-18.1c-.6-.3-2.1-.6-3.8-.6-3.5 0-6.5 1.8-8 4.3V156h-9.9v35.9h9.9v-22.3c.7-3.3 3.4-5.1 6.8-5.1 1.8 0 3.6.4 5 1.2v-9.9zm-27.9-10.2c0-3.3-2.7-5.7-5.9-5.7s-5.9 2.4-5.9 5.7c0 3.4 2.7 5.7 5.9 5.7s5.9-2.3 5.9-5.7m-.9 10.4h-9.9v35.9h9.9V156zm-27.3 35.9l13.6-35.9h-10l-8.1 23.9-8.3-23.9h-10.4l13.5 35.9h9.7zm-58.3 0h9.9v-22.7c.8-3.1 3.4-5 6.5-5 3.9 0 5.9 2.6 5.9 6.3v21.4h9.9v-23.4c0-7.9-4.6-13.3-12.7-13.3-4.2 0-7.7 1.8-9.6 4.1V156H285v35.9zm-39.4-52.1v52H279v-9.1h-23.3v-13.1h21.2V161h-21.2v-12.1H279v-9l-33.4-.1zM559.3 86.1c-2-2.6-5.4-4.6-9.6-4.6-4 0-7.3 1.5-9.1 3.8v-3h-9.9v35.9h9.9V95.1c.6-3.1 3.1-4.7 5.6-4.7 3.4 0 5 2.6 5 6.4v21.4h10V95.1c.6-3.1 3-4.7 5.5-4.7 3.4 0 5.1 2.6 5.1 6.4v21.4h9.9V94.7c0-8.1-4.4-13.3-11.8-13.3-4.8.1-8.3 2.1-10.6 4.7M522.1 66h-9.9v52.2h9.9V66zm-26.2 34.3c0 5.9-2.7 10.3-7.7 10.3s-7.7-4.3-7.7-10.3c0-6 2.7-10.4 7.7-10.4s7.7 4.4 7.7 10.4m9.9 0c0-11.1-7.1-18.8-17.6-18.8s-17.6 7.7-17.6 18.8c0 11 7.1 18.7 17.6 18.7s17.6-7.7 17.6-18.7m-73.4 17.9h9.9V95.5c.8-3.1 3.4-5 6.5-5 3.9 0 5.9 2.6 5.9 6.3v21.4h9.9V94.7c0-8-4.6-13.3-12.7-13.3-4.2 0-7.7 1.9-9.6 4.1V66h-9.9v52.2zm-16.7 0h11.8l-15.1-20.6L427 82.3h-12.3l-12.3 13.3V66h-9.9v52.2h9.9v-11.3l2.9-3.1 10.4 14.4zm-62.3-17.9c0 11.1 7.1 18.7 17.2 18.7 9 0 14.7-5.2 15.7-12.9h-9.8c-.6 2.7-2.7 4.4-5.9 4.4-4.6 0-7.4-4.2-7.4-10.2 0-6.1 2.8-10.3 7.4-10.3 3.2 0 5.4 1.7 5.9 4.4h9.8c-1-7.6-6.7-12.9-15.7-12.9-10.2 0-17.2 7.6-17.2 18.8m-14.3 0c0 5.9-2.7 10.3-7.7 10.3s-7.7-4.3-7.7-10.3c0-6 2.7-10.4 7.7-10.4s7.7 4.4 7.7 10.4m9.9 0c0-11.1-7.1-18.8-17.6-18.8-10.4 0-17.6 7.7-17.6 18.8 0 11 7.1 18.7 17.6 18.7 10.4 0 17.6-7.7 17.6-18.7m-58.1 7c0 8 4.6 11.6 11.9 11.6 2.6 0 5-.4 6.4-1.1V109c-1.1.7-2.8 1.2-4.3 1.2-2.6 0-4.1-1.3-4.1-4.1V90.3h7.9v-8h-7.9V71.2h-9.9v11.1h-5.4v8h5.4v17zm-47.3-3.2c1.7 9.4 9.5 14.9 20.4 14.9 10.4 0 18.3-5.8 18.3-15.3 0-7.5-4.9-12-12.9-13.9l-9-2.1c-3.7-.9-5.5-2.6-5.5-5.4 0-3.5 3.1-5.8 7.8-5.8 5.1 0 7.9 2.6 9.1 5.9H282c-1.6-8.4-8.1-14.3-19.3-14.3-10.3 0-17.7 6.3-17.7 15.2 0 8.1 5.4 11.9 12.5 13.5l8.8 2c4.3 1 6 2.6 6 5.5 0 3.9-3.3 6.2-8.3 6.2-4.8 0-8.4-2-9.8-6.3 0-.1-10.6-.1-10.6-.1z" class="st0"/></g></svg>