<svg xmlns="http://www.w3.org/2000/svg" id="Calque_1" x="0" y="0" version="1.1" viewBox="0 0 283.8 189.2" xml:space="preserve"><style>.st0{fill:#fff}.st1{fill:#164194}.st2{fill:#ffed00}</style><path d="M0 .1h283.6v189.1H0z" class="st1"/><path d="M135.8 41.3l6-4.3 5.9 4.3-2.2-7 6-4.4h-7.4l-2.3-7.1-2.3 7.1H132l6.1 4.4zM104.8 49.7l6-4.4 6 4.4-2.3-7.1 6.1-4.4h-7.5l-2.3-7.1-2.3 7.1H101l6.1 4.4zM88.1 53.8L85.8 61l-7.4-.1 6 4.4-2.2 7.1 5.9-4.4 6 4.4-2.3-7.1 6.1-4.4h-7.5zM79.8 98.9l6 4.4-2.3-7.1 6.1-4.3h-7.5l-2.3-7.2-2.3 7.2H70l6.1 4.3-2.3 7.1zM90.4 122.9l-2.3-7.2-2.3 7.2h-7.4l6 4.4-2.2 7 5.9-4.3 6 4.3-2.3-7 6.1-4.4zM113.1 145.6l-2.3-7.1-2.3 7.1h-7.4l6 4.4-2.2 7 5.9-4.3 6 4.3-2.3-7 6.1-4.4zM144.1 153.8l-2.3-7.1-2.3 7.1H132l6.1 4.4-2.3 7.1 6-4.4 6 4.4-2.3-7.1 6.1-4.4zM175 145.6l-2.3-7.1-2.3 7.1h-7.5l6.1 4.4-2.3 7 6-4.3 6 4.3-2.3-7 6.1-4.4zM197.7 122.9l-2.3-7.2-2.3 7.2h-7.5l6.1 4.4-2.3 7 6-4.3 6 4.3-2.3-7 6.1-4.4zM213.4 91.8h-7.5l-2.3-7.2-2.3 7.2h-7.5l6.1 4.4-2.3 7 6-4.4 6 4.4-2.3-7zM189.4 72.3l6-4.4 6 4.4-2.3-7.1 6.1-4.3h-7.5l-2.3-7.2-2.3 7.2h-7.5l6.1 4.3zM172.8 31.1l-2.3 7.2-7.5-.1 6.1 4.4-2.3 7.1 6-4.4 6 4.4-2.3-7.1 6.1-4.4h-7.5z" class="st2"/></svg>