<svg xmlns="http://www.w3.org/2000/svg" id="Ebene_1" x="0" y="0" version="1.1" viewBox="0 0 186.4 35" xml:space="preserve"><style>.st0{fill:#202022}</style><g id="proposal1"><g id="Group" transform="translate(20 44)"><path id="Oval" d="M-3.8-11.8c-7.8 0-14.2-6.3-14.2-14.1S-11.6-40-3.8-40s14.2 6.3 14.2 14.1S4-11.8-3.8-11.8zm0-26.4c-6.9 0-12.4 5.5-12.4 12.3s5.6 12.3 12.4 12.3c6.9 0 12.4-5.5 12.4-12.3S3-38.2-3.8-38.2z" class="st0"/><path id="Oval_1_" d="M8.6-23.8c-5.2 0-9.4-4.2-9.4-9.4s4.2-9.4 9.4-9.4 9.4 4.2 9.4 9.4-4.2 9.4-9.4 9.4zm0-17.1c-4.2 0-7.7 3.4-7.7 7.6s3.4 7.6 7.7 7.6c4.2 0 7.7-3.4 7.7-7.6s-3.4-7.6-7.7-7.6z" class="st0"/><path id="Oval_2_" d="M13.3-10.3c-2.6 0-4.7-2.1-4.7-4.7s2.1-4.7 4.7-4.7S18-17.6 18-15s-2.1 4.7-4.7 4.7zm0-7.7c-1.6 0-3 1.3-3 2.9s1.3 2.9 3 2.9 3-1.3 3-2.9-1.3-2.9-3-2.9z" class="st0"/></g></g><path d="M51.2 23.5c-1 0-1.8-.2-2.5-.5s-1.2-.8-1.7-1.4l1.2-1.1c.4.5.9.9 1.4 1.2.5.2 1.1.4 1.7.4.7 0 1.3-.2 1.7-.5.4-.3.6-.8.6-1.4 0-.5-.1-.9-.4-1.2-.3-.3-.8-.5-1.5-.6l-1.3-.2c-.5-.1-1-.2-1.4-.4-.4-.2-.7-.4-.9-.7-.2-.3-.4-.6-.5-.9-.1-.3-.2-.7-.2-1.1 0-1.1.4-1.9 1.1-2.5.7-.6 1.7-.8 2.9-.8.9 0 1.7.1 2.3.4.6.3 1.2.7 1.6 1.2l-1.2 1.2c-.3-.4-.7-.7-1.1-.9-.4-.2-1-.4-1.6-.4-.7 0-1.2.1-1.6.4-.4.3-.5.7-.5 1.3 0 .5.1.8.4 1.1.3.3.8.5 1.5.6l1.2.2c1 .2 1.8.6 2.3 1.1.5.6.7 1.3.7 2.1 0 .5-.1 1-.3 1.4-.2.4-.5.8-.8 1.1-.3.2-.8.4-1.3.6-.5.2-1.1.3-1.8.3zm6.5-.2V11.7h7.2v1.5h-5.4v3.3h5.2V18h-5.2v3.5h5.4V23h-7.2zm11.4-8.9H69v8.9h-1.6V11.7h2.4l3.4 8.9h.1v-8.9h1.6v11.5h-2.4l-3.4-8.8zm11.8 9.1c-1 0-1.8-.2-2.5-.5s-1.2-.8-1.7-1.4l1.2-1.1c.4.5.9.9 1.4 1.2.5.2 1.1.4 1.7.4.7 0 1.3-.2 1.7-.5.4-.3.6-.8.6-1.4 0-.5-.1-.9-.4-1.2-.3-.3-.8-.5-1.5-.6l-1.4-.3c-.5-.1-1-.2-1.4-.4-.4-.2-.7-.4-.9-.7-.2-.3-.4-.6-.5-.9-.1-.3-.2-.7-.2-1.1 0-1.1.4-1.9 1.1-2.5.7-.6 1.7-.8 2.9-.8.9 0 1.7.1 2.3.4.6.3 1.2.7 1.6 1.2l-1.2 1.2c-.3-.4-.7-.7-1.1-.9-.4-.2-1-.4-1.6-.4-.7 0-1.2.1-1.6.4-.4.3-.5.7-.5 1.3 0 .5.1.8.4 1.1.3.3.8.5 1.5.6l1.2.2c1 .2 1.8.6 2.3 1.1.5.6.7 1.3.7 2.1 0 .5-.1 1-.3 1.4-.2.4-.5.8-.8 1.1-.4.3-.8.5-1.3.7-.5.2-1.1.3-1.7.3zm6.4-.2V11.7h7.2v1.5h-5.4v3.3h5.2V18h-5.2v3.5h5.4V23h-7.2zm13.3.2c-1 0-1.8-.2-2.5-.5s-1.2-.8-1.7-1.4l1.2-1.1c.4.5.9.9 1.4 1.2.5.2 1.1.4 1.7.4.7 0 1.3-.2 1.7-.5.4-.3.6-.8.6-1.4 0-.5-.1-.9-.4-1.2-.3-.3-.8-.5-1.5-.6l-1.3-.2c-.5-.1-1-.2-1.4-.4-.4-.2-.7-.4-.9-.7-.2-.3-.4-.6-.5-.9-.1-.3-.2-.7-.2-1.1 0-1.1.4-1.9 1.1-2.5.7-.6 1.7-.8 2.9-.8.9 0 1.7.1 2.3.4.6.3 1.2.7 1.6 1.2l-1.2 1.2c-.3-.4-.7-.7-1.1-.9-.4-.2-1-.4-1.6-.4-.7 0-1.2.1-1.6.4-.4.3-.5.7-.5 1.3 0 .5.1.8.4 1.1.3.3.8.5 1.5.6l1.2.2c1 .2 1.8.6 2.3 1.1.5.6.7 1.3.7 2.1 0 .5-.1 1-.3 1.4-.2.4-.5.8-.8 1.1-.4.3-.8.5-1.3.7-.5.1-1.1.2-1.8.2zm16.4-.2V11.7h4.3c1.1 0 1.9.3 2.5.9.6.6.9 1.5.9 2.5 0 1.1-.3 1.9-.9 2.5s-1.4.9-2.5.9h-2.5v4.6H117zm1.8-6.2h2.2c1.1 0 1.7-.5 1.7-1.6v-.7c0-1-.6-1.6-1.7-1.6h-2.2v3.9zm9.9 6.2h-1.8V11.7h4.3c1.1 0 1.9.3 2.5.9.6.6.9 1.5.9 2.5 0 .9-.2 1.6-.6 2.2-.4.6-1 .9-1.8 1.1l2.7 4.8h-2l-2.4-4.7H129v4.8zm2.2-6.2c1.1 0 1.7-.5 1.7-1.6v-.7c0-1-.6-1.6-1.7-1.6h-2.2v3.9h2.2zm9.4 6.4c-.7 0-1.4-.1-1.9-.4-.5-.3-1-.7-1.3-1.2-.3-.5-.6-1.1-.8-1.9-.2-.7-.2-1.6-.2-2.5 0-.9.1-1.8.2-2.5.2-.7.4-1.4.8-1.9.3-.5.8-.9 1.3-1.2.5-.3 1.2-.4 1.9-.4s1.4.1 1.9.4c.5.3 1 .7 1.3 1.2.3.5.6 1.1.8 1.9.2.7.2 1.6.2 2.5 0 .9-.1 1.8-.2 2.5-.2.7-.4 1.4-.8 1.9-.3.5-.8.9-1.3 1.2-.5.2-1.2.4-1.9.4zm0-1.6c.8 0 1.4-.3 1.7-.9.3-.6.5-1.5.5-2.5v-1.9c0-1.1-.2-1.9-.5-2.5-.3-.6-.9-.9-1.7-.9-.8 0-1.4.3-1.7.9-.3.6-.5 1.5-.5 2.5v2c0 1.1.2 1.9.5 2.5.3.5.9.8 1.7.8zm13.1-10.2v8.4c0 .5-.1.9-.3 1.4-.2.4-.4.8-.7 1-.3.3-.7.5-1.1.7-.4.2-.9.2-1.5.2-1 0-1.8-.3-2.4-.8s-1-1.2-1.2-2.1l1.7-.4c.1.5.3.9.6 1.2.3.3.7.5 1.3.5.5 0 1-.2 1.3-.5.3-.3.5-.8.5-1.5v-6.6h-4v-1.5h5.8zm3.2 11.6V11.7h7.2v1.5h-5.4v3.3h5.2V18h-5.2v3.5h5.4V23h-7.2zm13.7.2c-1.5 0-2.5-.5-3.3-1.5-.7-1-1.1-2.5-1.1-4.4s.4-3.4 1.1-4.4c.7-1 1.8-1.5 3.3-1.5.6 0 1 .1 1.5.2.4.1.8.3 1.1.6.3.3.5.6.8.9.2.3.4.7.5 1.1l-1.7.6c-.1-.3-.2-.5-.3-.7-.1-.2-.2-.4-.4-.6-.2-.2-.4-.3-.6-.4-.2-.1-.5-.1-.8-.1-.8 0-1.4.3-1.8.9-.4.6-.6 1.5-.6 2.5v2c0 1.1.2 1.9.6 2.5.4.6 1 .9 1.8.9.3 0 .6 0 .8-.1.2-.1.4-.2.6-.4.2-.2.3-.4.4-.6.1-.2.2-.5.3-.7l1.7.6c-.1.4-.3.8-.5 1.1-.2.3-.5.6-.8.9-.3.3-.7.5-1.1.6-.5-.1-.9 0-1.5 0zm10.5-10.2v10H179v-10h-3.6v-1.5h9.1v1.5h-3.7z" class="st0"/></svg>