<svg xmlns="http://www.w3.org/2000/svg" width="132" height="38" viewBox="0 0 132 38"><g fill="none" fill-rule="evenodd"><path fill="#DC3E2A" d="M.916.762v.009l1.159 2.486h10.379V.762zM3.239 5.752l1.163 2.494h8.052V5.752z"/><path fill="#1A1919" d="M20.803 8.235h2.313c1.457 0 2.407-.824 2.407-2.112 0-1.469-1.13-1.796-1.236-1.817.106-.02.835-.444.835-1.446 0-1.235-.856-2.016-2.376-2.016h-1.943v7.39zm2.313-.845H21.69V4.856h1.426c1.056 0 1.52.57 1.52 1.266 0 .697-.464 1.268-1.52 1.268zM21.69 4.031V1.688h1.204c.834 0 1.34.454 1.34 1.172s-.506 1.172-1.34 1.172H21.69zm7.339 4.329c1.056 0 1.5-.877 1.5-.877v.75h.823V3.358h-.887v3.377s-.391.803-1.214.803c-.655 0-1.172-.359-1.172-1.192V3.357h-.887v3.135c0 1.204.866 1.869 1.837 1.869zm6.632-5.132c-1.056 0-1.5.814-1.5.814v-.687h-.823v4.879h.887V4.877s.422-.824 1.214-.824c.655 0 1.172.36 1.172 1.194v2.988h.887V5.099c0-1.205-.865-1.87-1.837-1.87zm5.85 0c-1.32 0-2.365 1.13-2.365 2.566s1.045 2.566 2.365 2.566c1.172 0 1.647-.835 1.647-.835v.709h.813V.252h-.886v3.706s-.497-.729-1.574-.729zm1.574 3.463s-.465.845-1.436.845c-.993 0-1.616-.78-1.616-1.742 0-.96.644-1.742 1.616-1.742.97 0 1.436.846 1.436.846v1.793zm5.163-3.463c-1.467 0-2.44 1.14-2.44 2.566 0 1.447 1.068 2.566 2.546 2.566 1.288 0 2.028-.96 2.028-.96l-.56-.582s-.507.718-1.468.718c-.92 0-1.626-.686-1.68-1.425h3.94c.01-.117.01-.19.01-.285 0-1.574-1.013-2.598-2.376-2.598zm-1.552 2.144c.064-.506.497-1.32 1.552-1.32.982 0 1.479.77 1.51 1.32h-3.062zm5.259 1.965s.718 1.022 2.09 1.022c.94 0 1.933-.484 1.933-1.424 0-.994-.792-1.341-1.721-1.542-.802-.168-1.183-.37-1.183-.74 0-.316.307-.622.93-.622.739 0 1.225.538 1.225.538l.58-.602s-.654-.739-1.805-.739c-1.088 0-1.795.697-1.795 1.404 0 .92.739 1.332 1.784 1.543.75.147 1.109.359 1.109.78 0 .391-.56.603-1.056.603-.961 0-1.478-.793-1.478-.793l-.613.572zm10.909-4.109c-1.067 0-1.458.909-1.458.909s-.306-.909-1.52-.909c-.993 0-1.352.845-1.352.845v-.717h-.823v4.877h.886v-3.4s.328-.78 1.046-.78c.633 0 1.045.39 1.045 1.181v3h.887v-3.4s.317-.782 1.045-.782c.634 0 1.046.39 1.046 1.183v2.999h.887V5.099c0-1.205-.676-1.87-1.69-1.87zm3.833 5.006h.887V3.357h-.887v4.877zm-.158-6.441c0 .326.274.602.6.602a.608.608 0 0 0 .603-.602.608.608 0 0 0-.602-.603.608.608 0 0 0-.601.603zm5.512 1.435c-1.056 0-1.5.814-1.5.814v-.687h-.823v4.879h.887V4.877s.422-.824 1.214-.824c.655 0 1.172.36 1.172 1.194v2.988h.887V5.099c0-1.205-.866-1.87-1.837-1.87zm3.98 5.006h.888V3.357h-.887v4.877zm-.157-6.441c0 .326.274.602.602.602a.608.608 0 0 0 .6-.602.608.608 0 0 0-.6-.603.608.608 0 0 0-.602.603zm2.872 5.543s.718 1.024 2.09 1.024c.94 0 1.933-.486 1.933-1.426 0-.992-.792-1.34-1.721-1.54-.803-.17-1.182-.37-1.182-.74 0-.317.306-.623.929-.623.739 0 1.224.538 1.224.538l.58-.602s-.653-.739-1.804-.739C79.707 3.23 79 3.926 79 4.633c0 .92.739 1.332 1.784 1.543.75.147 1.109.359 1.109.78 0 .391-.56.603-1.056.603-.961 0-1.478-.793-1.478-.793l-.613.572zm5.333-3.178h.95V6.83c0 1.077.77 1.53 1.468 1.53.285 0 .59-.063 1.014-.294l-.328-.729s-.285.2-.56.2c-.474 0-.707-.274-.707-.75V4.16h1.52v-.802h-1.52v-1.49h-.886v1.49h-.951v.801zm7.128-.93c-1.468 0-2.44 1.14-2.44 2.566 0 1.447 1.067 2.566 2.545 2.566 1.289 0 2.028-.96 2.028-.96l-.56-.582s-.507.718-1.468.718c-.918 0-1.626-.686-1.678-1.425h3.938c.01-.117.01-.19.01-.285 0-1.574-1.013-2.598-2.375-2.598zm-1.552 2.144c.063-.506.496-1.32 1.552-1.32.982 0 1.478.77 1.51 1.32h-3.062zm7.76-2.144c-.928 0-1.361.877-1.361.877v-.75h-.824v4.879h.887V4.877s.349-.824 1.12-.824c.369 0 .559.106.559.106l.328-.802s-.306-.128-.708-.128zm2.198 5.006h.887V3.357h-.887v4.877zm-.16-6.441a.61.61 0 0 0 .603.602.608.608 0 0 0 .602-.602.608.608 0 0 0-.602-.603.608.608 0 0 0-.602.603zm5.028 6.566c1.056 0 1.499-.875 1.499-.875v.75h.824V3.357h-.887v3.377s-.391.803-1.215.803c-.654 0-1.171-.359-1.171-1.192V3.357h-.887v3.135c0 1.204.866 1.869 1.837 1.869zm9.46-5.13c-1.065 0-1.456.908-1.456.908s-.306-.909-1.52-.909c-.993 0-1.352.845-1.352.845v-.717h-.824v4.877h.888v-3.4s.327-.78 1.045-.78c.633 0 1.045.39 1.045 1.181v3h.887v-3.4s.317-.782 1.045-.782c.634 0 1.046.39 1.046 1.183v2.999h.887V5.099c0-1.205-.676-1.87-1.69-1.87zM20.867 21.434h2.27c1.426 0 2.24-.823 2.24-2.006 0-1.457-1.152-1.858-1.279-1.89.127-.053.876-.475.876-1.594 0-1.162-.844-1.9-2.1-1.9h-2.007v7.39zm.55-.507v-3.04h1.815c1.14 0 1.573.813 1.573 1.541 0 .73-.422 1.5-1.72 1.5h-1.669zm0-3.548V14.55h1.404c1.013 0 1.583.58 1.583 1.394 0 .803-.433 1.435-1.436 1.435h-1.552zm5.881 4.055h.55V16.62h-.55v4.814zm-.148-6.377c0 .231.19.422.423.422a.424.424 0 0 0 .422-.422.424.424 0 0 0-.422-.423.424.424 0 0 0-.423.423zm3.168 6.377h.55v-7.982h-.529l-.02 7.982zm7.17 0v-7.982h-.538v3.98c-.127-.189-.687-.939-1.743-.939-1.34 0-2.397 1.035-2.397 2.534 0 1.5 1.056 2.534 2.397 2.534 1.225 0 1.785-1.014 1.785-1.014v.887h.496zm-.549-1.53s-.528 1.12-1.732 1.12c-1.077 0-1.826-.878-1.826-1.997 0-1.119.75-1.995 1.826-1.995 1.215 0 1.732 1.12 1.732 1.12v1.751zm4.678 1.657c1.183 0 1.647-.982 1.647-.982v.855h.497V16.62h-.549v3.346s-.423 1.057-1.489 1.057c-.803 0-1.362-.423-1.362-1.415V16.62h-.55v3.072c0 1.31.888 1.87 1.806 1.87zm6.442-5.068c-1.183 0-1.648 1.003-1.648 1.003v-.876h-.496v4.814h.55v-3.326s.422-1.076 1.488-1.076c.782 0 1.362.422 1.362 1.414v2.988h.55v-3.072c0-1.31-.909-1.869-1.806-1.869zm7.761.127v.886s-.528-1.013-1.795-1.013c-1.33 0-2.386 1.035-2.386 2.534 0 1.5 1.056 2.534 2.386 2.534 1.067 0 1.584-.707 1.742-.929v.94c0 1.077-.57 1.88-1.805 1.88-1.225 0-1.837-.835-1.837-.835l-.37.39s.792.983 2.207.983c1.404 0 2.355-.93 2.355-2.44v-4.93h-.497zm-.053 3.283s-.496 1.12-1.742 1.12c-1.077 0-1.816-.877-1.816-1.996s.74-1.995 1.816-1.995c1.246 0 1.742 1.12 1.742 1.12v1.751zm2.282 3.084l.485.17.898-2.472-.507-.18-.876 2.482zm15.987-8.944h-.58l-2.134 6.04-1.922-6.04h-.559l-1.89 6.04-2.154-6.04h-.592l2.725 7.603 2.196-6.695 2.185 6.695 2.725-7.603zm1.584 7.391h.55V16.62h-.55v4.814zm-.148-6.377c0 .231.191.422.423.422a.424.424 0 0 0 .422-.422.424.424 0 0 0-.422-.423.425.425 0 0 0-.423.423zm2.63 5.48s.634 1.024 2.06 1.024c.907 0 1.826-.465 1.826-1.383 0-.866-.718-1.182-1.616-1.384-.813-.179-1.446-.348-1.446-.939 0-.496.485-.823 1.14-.823.866 0 1.362.538 1.362.538l.36-.402s-.592-.675-1.722-.675c-1.056 0-1.7.675-1.7 1.362 0 .803.655 1.204 1.71 1.435.75.17 1.342.338 1.342.888 0 .633-.729.845-1.257.845a1.898 1.898 0 0 1-1.626-.856l-.433.37zm5.354 0s.634 1.024 2.06 1.024c.907 0 1.826-.465 1.826-1.383 0-.866-.718-1.182-1.616-1.384-.813-.179-1.446-.348-1.446-.939 0-.496.485-.823 1.14-.823.866 0 1.362.538 1.362.538l.36-.402s-.592-.675-1.722-.675c-1.056 0-1.7.675-1.7 1.362 0 .803.655 1.204 1.71 1.435.75.17 1.342.338 1.342.888 0 .633-.729.845-1.257.845a1.898 1.898 0 0 1-1.626-.856l-.433.37zm7.72-4.044c-1.437 0-2.376 1.171-2.376 2.534 0 1.373 1.034 2.534 2.47 2.534.792 0 1.553-.422 2.017-.982l-.369-.38c-.328.412-.908.824-1.648.824-1.278 0-1.879-1.046-1.922-1.775h4.15c.011-.116.011-.127.011-.22 0-1.48-1.056-2.535-2.334-2.535zm-1.806 2.25c.021-.53.464-1.71 1.805-1.71 1.267 0 1.743 1.16 1.764 1.71H89.37zm8.057-2.25c-1.183 0-1.647 1.003-1.647 1.003v-.876h-.496v4.814h.548v-3.326s.423-1.076 1.49-1.076c.781 0 1.361.422 1.361 1.414v2.988h.55v-3.072c0-1.31-.908-1.869-1.806-1.869zm3.59 4.044s.634 1.024 2.06 1.024c.908 0 1.826-.465 1.826-1.383 0-.866-.718-1.182-1.615-1.384-.813-.179-1.447-.348-1.447-.939 0-.496.486-.823 1.141-.823a1.95 1.95 0 0 1 1.362.538l.36-.402s-.593-.675-1.722-.675c-1.056 0-1.7.675-1.7 1.362 0 .803.654 1.204 1.71 1.435.75.17 1.341.338 1.341.888 0 .633-.729.845-1.257.845a1.898 1.898 0 0 1-1.626-.856l-.433.37zm7.826.486c-1.152 0-1.912-.93-1.912-1.996 0-1.067.76-1.995 1.912-1.995 1.013 0 1.53.717 1.53.717l.391-.348s-.665-.908-1.92-.908c-1.437 0-2.483 1.14-2.483 2.534 0 1.393 1.046 2.534 2.482 2.534 1.31 0 1.974-.982 1.974-.982l-.38-.359s-.528.803-1.594.803zm4.318-3.61v-3.96h-.548v7.981h.548v-3.326s.423-1.076 1.49-1.076c.781 0 1.362.422 1.362 1.414v2.988h.548v-3.072c0-1.31-.907-1.869-1.805-1.869-1.13 0-1.595.92-1.595.92zm7.393-.92c-1.014 0-1.806.506-1.806.506l.243.476s.696-.443 1.573-.443c.528 0 1.415.2 1.415 1.372v.36s-.623-.455-1.605-.455c-.94 0-1.91.57-1.91 1.626 0 1.066.94 1.626 1.752 1.626 1.182 0 1.816-.96 1.816-.96v.833h.496v-3.157c0-.982-.634-1.784-1.974-1.784zm-.212 4.53c-.623 0-1.309-.328-1.309-1.088s.781-1.099 1.415-1.099c.961 0 1.531.402 1.531.402v.813s-.58.972-1.637.972zm3.823-3.897h1.035v4.308h.55v-4.308h1.266v-.506h-1.267v-1.743c0-.59.222-1.013.845-1.013.327 0 .612.17.612.17l.232-.477c-.38-.2-.633-.232-.918-.232-.655 0-1.32.486-1.32 1.404v1.891h-1.035v.506zm4.098 0h1.045v3.01c0 .791.433 1.425 1.372 1.425.486 0 .951-.285.951-.285l-.21-.475s-.339.222-.72.222c-.654 0-.844-.454-.844-.993v-2.904h1.636v-.506h-1.636v-1.553h-.549v1.553h-1.045v.506zM22.502 34.761c1.184 0 1.648-.982 1.648-.982v.855h.497V29.82h-.55v3.346s-.422 1.056-1.49 1.056c-.801 0-1.361-.422-1.361-1.414V29.82h-.55v3.072c0 1.31.888 1.87 1.807 1.87zm6.442-5.068c-1.182 0-1.647 1.003-1.647 1.003v-.876H26.8v4.814h.549v-3.326s.423-1.077 1.489-1.077c.78 0 1.362.423 1.362 1.415v2.988h.549v-3.072c0-1.31-.908-1.869-1.806-1.869zm8.258 4.941v-7.982h-.538v3.98c-.127-.189-.686-.939-1.743-.939-1.34 0-2.397 1.034-2.397 2.534 0 1.5 1.057 2.534 2.397 2.534 1.226 0 1.785-1.014 1.785-1.014v.887h.496zm-.55-1.53s-.527 1.118-1.731 1.118c-1.076 0-1.826-.876-1.826-1.995 0-1.119.75-1.996 1.826-1.996 1.215 0 1.732 1.12 1.732 1.12v1.752zm7.098-5.333h3.495v-.529H43.2v7.392h.549v-3.537h3.284v-.507H43.75v-2.819zm7.223 1.922c-1.436 0-2.45 1.14-2.45 2.534 0 1.393 1.014 2.534 2.45 2.534 1.436 0 2.449-1.14 2.449-2.534s-1.013-2.534-2.45-2.534zm0 4.53c-1.204 0-1.88-.908-1.88-1.996s.676-1.996 1.88-1.996c1.203 0 1.879.908 1.879 1.996s-.676 1.995-1.88 1.995zm6.125-4.53c-.993 0-1.405.908-1.405.908v-.78h-.496v4.813h.549V31.16s.39-.929 1.225-.929c.443 0 .644.116.644.116l.232-.527s-.295-.127-.75-.127zm1.71 4.044s.634 1.024 2.059 1.024c.908 0 1.827-.465 1.827-1.384 0-.865-.718-1.182-1.615-1.383-.813-.179-1.447-.348-1.447-.939 0-.496.486-.824 1.14-.824.866 0 1.362.54 1.362.54l.36-.403s-.592-.675-1.721-.675c-1.057 0-1.701.675-1.701 1.362 0 .802.655 1.203 1.71 1.435.75.17 1.342.338 1.342.887 0 .634-.728.845-1.257.845-1.14 0-1.626-.855-1.626-.855l-.432.37zm7.825.485c-1.151 0-1.911-.929-1.911-1.995 0-1.067.76-1.996 1.91-1.996 1.015 0 1.532.718 1.532.718l.39-.348s-.664-.908-1.921-.908c-1.436 0-2.481 1.14-2.481 2.534 0 1.393 1.045 2.534 2.48 2.534 1.31 0 1.976-.982 1.976-.982l-.38-.359s-.528.802-1.595.802zm4.319-3.61v-3.96h-.55v7.982h.55v-3.326s.423-1.077 1.489-1.077c.782 0 1.362.423 1.362 1.415v2.988h.55v-3.072c0-1.31-.91-1.869-1.806-1.869-1.13 0-1.595.92-1.595.92zm7.36 4.15c1.183 0 1.648-.983 1.648-.983v.855h.496V29.82h-.55v3.346s-.422 1.056-1.488 1.056c-.802 0-1.362-.422-1.362-1.414V29.82h-.55v3.072c0 1.31.888 1.87 1.807 1.87zm6.442-5.069c-1.183 0-1.647 1.003-1.647 1.003v-.876h-.497v4.814h.55v-3.326s.422-1.077 1.489-1.077c.78 0 1.362.423 1.362 1.415v2.988h.549v-3.072c0-1.31-.91-1.869-1.806-1.869zm7.762.127v.886s-.528-1.013-1.795-1.013c-1.331 0-2.387 1.034-2.387 2.534 0 1.5 1.056 2.534 2.387 2.534 1.066 0 1.583-.708 1.742-.93v.941c0 1.077-.57 1.88-1.806 1.88-1.225 0-1.837-.835-1.837-.835l-.37.39s.792.983 2.207.983c1.405 0 2.355-.93 2.355-2.44v-4.93h-.496zm-.053 3.283s-.497 1.12-1.742 1.12c-1.077 0-1.817-.877-1.817-1.996s.74-1.996 1.817-1.996c1.245 0 1.742 1.12 1.742 1.12v1.752z"/></g></svg>