<?xml version="1.0" encoding="utf-8"?>
<!-- Generator: Adobe Illustrator 21.1.0, SVG Export Plug-In . SVG Version: 6.00 Build 0)  -->
<svg version="1.1" xmlns="http://www.w3.org/2000/svg" xmlns:xlink="http://www.w3.org/1999/xlink" x="0px" y="0px"
	 viewBox="0 0 135.4 80.7" style="enable-background:new 0 0 135.4 80.7;" xml:space="preserve">
<style type="text/css">
	.st0{fill:#F8D200;}
	.st1{fill:#E30613;}
</style>
<g id="Ebene_4">
</g>
<g id="Ebene_2">
	<g>
		<path d="M50.5,15.4V5.1h5l-0.1,1h-3.7V10h3.4v1h-3.4v4.4H50.5z M61.3,10.7c0,0.3,0,0.6,0,0.8c0,0.2,0,0.4-0.1,0.6h-3.6
			c0,0.8,0.2,1.5,0.5,1.9c0.3,0.4,0.8,0.6,1.4,0.6c0.2,0,0.4,0,0.6-0.1c0.2-0.1,0.3-0.1,0.4-0.2c0.1-0.1,0.2-0.1,0.3-0.2
			C60.9,14,61,14,61,13.9l0.4,0.9c0,0.1-0.1,0.1-0.2,0.2c-0.1,0.1-0.2,0.2-0.4,0.3c-0.2,0.1-0.4,0.2-0.6,0.2
			c-0.2,0.1-0.5,0.1-0.9,0.1c-0.4,0-0.9-0.1-1.2-0.2c-0.4-0.1-0.7-0.4-0.9-0.7c-0.3-0.3-0.4-0.7-0.6-1.2c-0.1-0.5-0.2-1.1-0.2-1.7
			c0-0.6,0.1-1.2,0.2-1.7C56.8,9.6,57,9.3,57.2,9c0.2-0.3,0.5-0.5,0.9-0.7c0.3-0.1,0.7-0.2,1.1-0.2c0.7,0,1.2,0.2,1.6,0.7
			C61.1,9.2,61.3,9.8,61.3,10.7z M59.1,9.1c-0.4,0-0.8,0.2-1,0.5c-0.3,0.4-0.4,0.9-0.4,1.6h2.6c0-0.1,0-0.1,0-0.2c0-0.1,0-0.2,0-0.3
			c0-0.5-0.1-0.9-0.3-1.2C59.7,9.2,59.5,9.1,59.1,9.1z M62.6,12c0-0.7,0.1-1.3,0.3-1.8c0.2-0.5,0.4-0.9,0.7-1.2
			c0.3-0.3,0.6-0.5,1-0.6c0.4-0.1,0.8-0.2,1.1-0.2c0.2,0,0.4,0,0.6,0.1c0.2,0,0.3,0.1,0.4,0.1V4.9L68,4.7v10.7h-1.1v-0.8h0
			c0,0.1-0.1,0.1-0.2,0.2c-0.1,0.1-0.2,0.2-0.3,0.3c-0.1,0.1-0.3,0.2-0.5,0.3c-0.2,0.1-0.5,0.1-0.7,0.1c-0.3,0-0.7-0.1-1-0.2
			c-0.3-0.1-0.6-0.3-0.8-0.6c-0.2-0.3-0.4-0.7-0.5-1.1C62.7,13.2,62.6,12.6,62.6,12z M65.4,14.5c0.2,0,0.4,0,0.5-0.1
			c0.1-0.1,0.3-0.1,0.4-0.2c0.1-0.1,0.2-0.2,0.3-0.2c0.1-0.1,0.1-0.1,0.2-0.2V9.4c-0.1-0.1-0.2-0.1-0.4-0.2c-0.1,0-0.3-0.1-0.5-0.1
			c-0.3,0-0.5,0-0.8,0.1c-0.2,0.1-0.5,0.3-0.6,0.5c-0.2,0.2-0.3,0.5-0.4,0.9c-0.1,0.3-0.2,0.8-0.2,1.3c0,0.5,0,0.9,0.1,1.2
			c0.1,0.3,0.2,0.6,0.3,0.8c0.1,0.2,0.3,0.4,0.5,0.4C65,14.5,65.2,14.5,65.4,14.5z M74.4,10.7c0,0.3,0,0.6,0,0.8
			c0,0.2,0,0.4-0.1,0.6h-3.6c0,0.8,0.2,1.5,0.5,1.9c0.3,0.4,0.8,0.6,1.4,0.6c0.2,0,0.4,0,0.6-0.1c0.2-0.1,0.3-0.1,0.4-0.2
			c0.1-0.1,0.2-0.1,0.3-0.2c0.1-0.1,0.1-0.1,0.2-0.2l0.4,0.9c-0.1,0.1-0.1,0.1-0.2,0.2c-0.1,0.1-0.2,0.2-0.4,0.3
			c-0.2,0.1-0.4,0.2-0.6,0.2c-0.2,0.1-0.5,0.1-0.9,0.1c-0.4,0-0.9-0.1-1.2-0.2c-0.4-0.1-0.7-0.4-0.9-0.7c-0.3-0.3-0.4-0.7-0.6-1.2
			c-0.1-0.5-0.2-1.1-0.2-1.7c0-0.6,0.1-1.2,0.2-1.7c0.1-0.5,0.3-0.8,0.6-1.1c0.2-0.3,0.5-0.5,0.9-0.7c0.3-0.1,0.7-0.2,1.1-0.2
			c0.7,0,1.2,0.2,1.6,0.7C74.2,9.2,74.4,9.8,74.4,10.7z M72.2,9.1c-0.4,0-0.8,0.2-1,0.5c-0.3,0.4-0.4,0.9-0.4,1.6h2.6
			c0-0.1,0-0.1,0-0.2c0-0.1,0-0.2,0-0.3c0-0.5-0.1-0.9-0.3-1.2C72.8,9.2,72.5,9.1,72.2,9.1z M79.2,9.3c0,0-0.1,0-0.2-0.1
			c-0.1,0-0.2,0-0.4,0c-0.4,0-0.7,0.1-0.9,0.3c-0.2,0.2-0.4,0.4-0.5,0.7v5.3H76V8.3h1.1v1h0c0-0.1,0.1-0.3,0.2-0.4
			c0.1-0.1,0.2-0.3,0.3-0.4c0.1-0.1,0.3-0.2,0.4-0.2c0.2-0.1,0.4-0.1,0.6-0.1c0.2,0,0.3,0,0.4,0c0.1,0,0.2,0.1,0.2,0.1L79.2,9.3z
			 M79.9,13.6c0-0.4,0.1-0.8,0.2-1c0.2-0.3,0.4-0.5,0.6-0.7c0.3-0.2,0.6-0.3,0.9-0.4c0.4-0.1,0.7-0.1,1.2-0.1h0.4v-0.7
			c0-0.6-0.1-1-0.3-1.3c-0.2-0.2-0.5-0.3-0.9-0.3c-0.4,0-0.7,0.1-0.9,0.2c-0.2,0.2-0.4,0.3-0.6,0.4L80,9c0.1-0.1,0.2-0.2,0.3-0.3
			c0.1-0.1,0.3-0.2,0.5-0.3c0.2-0.1,0.4-0.2,0.6-0.2s0.5-0.1,0.8-0.1c0.7,0,1.3,0.2,1.7,0.6c0.4,0.4,0.6,1.1,0.6,2v3.3
			c0,0.3,0,0.6,0,0.9c0,0.3,0,0.5,0.1,0.6h-1.1l0-0.8h0c0,0.1-0.1,0.2-0.2,0.3c-0.1,0.1-0.2,0.2-0.3,0.3c-0.1,0.1-0.3,0.2-0.4,0.2
			c-0.2,0.1-0.4,0.1-0.6,0.1c-0.3,0-0.5,0-0.8-0.1c-0.2-0.1-0.4-0.2-0.6-0.4c-0.2-0.2-0.3-0.4-0.4-0.6
			C79.9,14.2,79.9,13.9,79.9,13.6z M82,14.6c0.2,0,0.3,0,0.4-0.1c0.1,0,0.2-0.1,0.3-0.2c0.1-0.1,0.2-0.1,0.2-0.2
			c0.1-0.1,0.1-0.2,0.2-0.2v-1.6l-0.4,0c-0.6,0-1,0.1-1.3,0.3c-0.3,0.2-0.4,0.5-0.4,0.9c0,0.4,0.1,0.6,0.3,0.8
			C81.5,14.5,81.7,14.6,82,14.6z M87.4,13.8c0,0.3,0,0.5,0.1,0.6c0.1,0.1,0.2,0.2,0.4,0.2c0.1,0,0.2,0,0.3,0c0.1,0,0.1,0,0.2-0.1
			l0.1,0.9c-0.1,0-0.2,0.1-0.3,0.1c-0.2,0.1-0.4,0.1-0.6,0.1c-0.4,0-0.7-0.1-1-0.4c-0.2-0.2-0.4-0.7-0.4-1.3v-9l1.2-0.1V13.8z
			 M101.6,5.1v10.3h-1.2v-4.9c0-0.3,0-0.6,0-0.9c0-0.3,0-0.6,0-0.8c0-0.3,0-0.5,0-0.7c0-0.2,0-0.4,0-0.5h0c0,0.2-0.2,0.6-0.3,1.1
			c-0.2,0.5-0.3,1.1-0.5,1.7l-1.7,5h-1l-1.7-5c-0.2-0.6-0.4-1.1-0.5-1.7c-0.2-0.5-0.3-0.9-0.3-1.1h0c0,0.1,0,0.3,0,0.5
			c0,0.2,0,0.4,0,0.7c0,0.3,0,0.5,0,0.8c0,0.3,0,0.6,0,0.9v4.9H93V5.1h1.4l2.4,7.1c0.1,0.3,0.2,0.7,0.3,1c0.1,0.3,0.1,0.6,0.2,0.8h0
			c0-0.2,0.1-0.5,0.1-0.8c0.1-0.3,0.2-0.6,0.3-1l2.4-7.1H101.6z M104.9,15.4h-1.2V8.3h1.2V15.4z M104.3,6.5c-0.2,0-0.4-0.1-0.6-0.2
			c-0.1-0.2-0.2-0.4-0.2-0.6c0-0.2,0.1-0.5,0.2-0.6c0.2-0.2,0.3-0.2,0.6-0.2c0.2,0,0.4,0.1,0.6,0.2c0.2,0.2,0.2,0.4,0.2,0.6
			c0,0.3-0.1,0.5-0.2,0.6C104.7,6.5,104.5,6.5,104.3,6.5z M110.6,15.4v-4.6c0-0.6-0.1-1-0.3-1.3c-0.2-0.3-0.5-0.4-0.9-0.4
			c-0.4,0-0.7,0.1-0.9,0.3c-0.2,0.2-0.4,0.4-0.6,0.5v5.5h-1.2V8.3h1.1v0.8h0c0-0.1,0.1-0.1,0.2-0.3c0.1-0.1,0.2-0.2,0.4-0.3
			c0.2-0.1,0.3-0.2,0.6-0.3c0.2-0.1,0.5-0.1,0.7-0.1c0.3,0,0.6,0,0.9,0.1c0.3,0.1,0.5,0.2,0.7,0.5c0.2,0.2,0.3,0.5,0.4,0.8
			c0.1,0.3,0.1,0.7,0.1,1.2v4.7H110.6z M114.8,15.4h-1.2V8.3h1.2V15.4z M114.2,6.5c-0.2,0-0.4-0.1-0.6-0.2c-0.2-0.2-0.2-0.4-0.2-0.6
			c0-0.2,0.1-0.5,0.2-0.6c0.2-0.2,0.3-0.2,0.6-0.2c0.2,0,0.4,0.1,0.6,0.2c0.2,0.2,0.2,0.4,0.2,0.6c0,0.3-0.1,0.5-0.2,0.6
			C114.7,6.5,114.5,6.5,114.2,6.5z M119.8,9.7c-0.1-0.1-0.2-0.2-0.4-0.4c-0.2-0.2-0.5-0.2-0.8-0.2c-0.3,0-0.6,0.1-0.7,0.2
			c-0.2,0.1-0.3,0.3-0.3,0.5c0,0.3,0.1,0.5,0.2,0.7c0.2,0.2,0.4,0.4,0.7,0.6l0.4,0.3c0.5,0.3,0.9,0.6,1.1,0.9
			c0.3,0.3,0.4,0.8,0.4,1.3c0,0.6-0.2,1-0.6,1.4c-0.4,0.4-1,0.6-1.7,0.6c-0.3,0-0.5,0-0.8-0.1c-0.2-0.1-0.4-0.1-0.6-0.2
			c-0.2-0.1-0.3-0.2-0.4-0.3c-0.1-0.1-0.2-0.2-0.3-0.3l0.6-1c0.1,0.1,0.1,0.1,0.2,0.2c0.1,0.1,0.2,0.2,0.3,0.2
			c0.1,0.1,0.3,0.1,0.4,0.2c0.1,0,0.3,0.1,0.5,0.1c0.4,0,0.6-0.1,0.8-0.2c0.2-0.2,0.3-0.4,0.3-0.6c0-0.2,0-0.3-0.1-0.4
			c0-0.1-0.1-0.2-0.2-0.3c-0.1-0.1-0.2-0.2-0.3-0.3c-0.1-0.1-0.3-0.2-0.4-0.3l-0.4-0.3c-0.4-0.3-0.8-0.6-1-0.9
			c-0.3-0.3-0.4-0.7-0.4-1.2c0-0.3,0.1-0.5,0.2-0.7c0.1-0.2,0.2-0.4,0.4-0.6c0.2-0.2,0.4-0.3,0.7-0.4c0.3-0.1,0.5-0.1,0.8-0.1
			c0.3,0,0.5,0,0.7,0.1c0.2,0.1,0.4,0.1,0.5,0.2c0.1,0.1,0.3,0.2,0.4,0.3c0.1,0.1,0.2,0.2,0.2,0.2L119.8,9.7z M124.9,9.2h-1.6v4
			c0,0.5,0.1,0.9,0.2,1c0.1,0.2,0.3,0.3,0.7,0.3c0.2,0,0.3,0,0.5-0.1c0.1-0.1,0.2-0.1,0.3-0.1l0.2,1c-0.1,0-0.2,0.1-0.4,0.2
			c-0.2,0.1-0.4,0.1-0.8,0.1c-0.6,0-1.1-0.2-1.4-0.5c-0.3-0.3-0.5-0.9-0.5-1.7V9.2h-0.9V8.4l0.9-0.2l0.1-2h1.1v2h1.7L124.9,9.2z
			 M129.4,9.3c0,0-0.1,0-0.2-0.1c-0.1,0-0.2,0-0.4,0c-0.4,0-0.7,0.1-0.9,0.3c-0.2,0.2-0.4,0.4-0.5,0.7v5.3h-1.2V8.3h1.1v1h0
			c0-0.1,0.1-0.3,0.2-0.4c0.1-0.1,0.2-0.3,0.3-0.4c0.1-0.1,0.3-0.2,0.4-0.2c0.2-0.1,0.4-0.1,0.6-0.1c0.2,0,0.3,0,0.4,0
			c0.1,0,0.2,0.1,0.2,0.1L129.4,9.3z M135.4,8.3l-2.2,7.6c-0.3,0.9-0.6,1.5-0.9,2c-0.4,0.4-0.9,0.7-1.6,0.7c-0.1,0-0.3,0-0.4-0.1
			c-0.1,0-0.2-0.1-0.2-0.1v-1c0.1,0,0.1,0,0.2,0.1c0.1,0,0.2,0,0.3,0c0.4,0,0.8-0.1,1-0.4c0.2-0.3,0.4-0.7,0.6-1.2l0.1-0.4l-2.3-7.2
			h1.3l1.1,4c0.1,0.4,0.2,0.8,0.3,1.1c0.1,0.4,0.1,0.7,0.2,0.9h0c0-0.3,0.1-0.6,0.1-0.9c0.1-0.3,0.2-0.7,0.3-1.1l1-4H135.4z
			 M49.9,26.9c0-0.7,0.1-1.2,0.2-1.7c0.2-0.5,0.4-0.9,0.6-1.2c0.3-0.3,0.6-0.5,0.9-0.7c0.3-0.1,0.7-0.2,1.1-0.2
			c0.4,0,0.8,0.1,1.1,0.2c0.3,0.1,0.6,0.4,0.9,0.7c0.2,0.3,0.4,0.7,0.6,1.2c0.1,0.5,0.2,1,0.2,1.7c0,0.7-0.1,1.2-0.2,1.7
			c-0.1,0.5-0.4,0.9-0.6,1.2c-0.3,0.3-0.6,0.5-0.9,0.7c-0.3,0.1-0.7,0.2-1.1,0.2c-0.4,0-0.8-0.1-1.1-0.2c-0.3-0.1-0.6-0.4-0.9-0.7
			c-0.2-0.3-0.4-0.7-0.6-1.2C50,28.2,49.9,27.6,49.9,26.9z M54.3,26.9c0-1-0.1-1.7-0.4-2.1c-0.3-0.4-0.7-0.6-1.2-0.6
			c-0.5,0-0.9,0.2-1.2,0.6c-0.3,0.4-0.4,1.1-0.4,2.1c0,1,0.1,1.6,0.4,2.1c0.3,0.4,0.7,0.6,1.2,0.6c0.5,0,0.9-0.2,1.2-0.6
			C54.1,28.6,54.3,27.9,54.3,26.9z M60,24.3h-1.5v6.2h-1.2v-6.2h-0.9v-0.8l0.9-0.2v-1.4c0-0.4,0.1-0.7,0.2-1
			c0.1-0.3,0.3-0.5,0.4-0.7c0.2-0.2,0.4-0.3,0.6-0.4c0.2-0.1,0.5-0.1,0.8-0.1c0.3,0,0.5,0,0.7,0.1c0.2,0.1,0.3,0.1,0.4,0.2L60,21
			c-0.1,0-0.1-0.1-0.3-0.1c-0.1,0-0.2-0.1-0.4-0.1c-0.3,0-0.5,0.1-0.7,0.3c-0.1,0.2-0.2,0.5-0.2,1v1.3h1.6L60,24.3z M69.3,21.2h-3.7
			v3.6H69v1h-3.4v3.6h4l-0.1,1.1h-5.3V20.2h5L69.3,21.2z M70.7,27c0-0.7,0.1-1.3,0.3-1.8c0.2-0.5,0.4-0.9,0.7-1.2
			c0.3-0.3,0.6-0.5,1-0.6c0.4-0.1,0.8-0.2,1.1-0.2c0.2,0,0.4,0,0.6,0.1c0.2,0,0.3,0.1,0.4,0.1v-3.4l1.2-0.1v10.7h-1.1v-0.8h0
			c0,0.1-0.1,0.1-0.2,0.2c-0.1,0.1-0.2,0.2-0.3,0.3c-0.1,0.1-0.3,0.2-0.5,0.3c-0.2,0.1-0.5,0.1-0.7,0.1c-0.3,0-0.7-0.1-1-0.2
			c-0.3-0.1-0.6-0.3-0.8-0.6c-0.2-0.3-0.4-0.7-0.5-1.1C70.7,28.2,70.7,27.7,70.7,27z M73.5,29.6c0.2,0,0.4,0,0.5-0.1
			c0.1,0,0.3-0.1,0.4-0.2c0.1-0.1,0.2-0.2,0.3-0.2c0.1-0.1,0.1-0.1,0.2-0.2v-4.4c-0.1-0.1-0.2-0.1-0.4-0.2c-0.1,0-0.3-0.1-0.5-0.1
			c-0.3,0-0.5,0-0.8,0.1c-0.2,0.1-0.5,0.3-0.6,0.5c-0.2,0.2-0.3,0.5-0.4,0.9C72,26,71.9,26.5,71.9,27c0,0.5,0,0.9,0.1,1.2
			c0.1,0.3,0.2,0.6,0.4,0.8c0.1,0.2,0.3,0.4,0.5,0.4C73.1,29.6,73.3,29.6,73.5,29.6z M82.9,30.5h-1.1v-0.8h0c0,0.1-0.1,0.1-0.2,0.3
			c-0.1,0.1-0.2,0.2-0.4,0.3c-0.2,0.1-0.3,0.2-0.6,0.3c-0.2,0.1-0.5,0.1-0.7,0.1c-0.3,0-0.6,0-0.9-0.1c-0.3-0.1-0.5-0.2-0.6-0.5
			c-0.2-0.2-0.3-0.5-0.4-0.8c-0.1-0.3-0.1-0.7-0.1-1.2v-4.7H79v4.6c0,0.6,0.1,1,0.3,1.3c0.2,0.3,0.5,0.4,0.9,0.4
			c0.3,0,0.6-0.1,0.9-0.3c0.2-0.2,0.4-0.3,0.6-0.5v-5.5h1.2V30.5z M88.7,24.7c0,0-0.1-0.1-0.1-0.1c-0.1-0.1-0.1-0.1-0.2-0.2
			c-0.1-0.1-0.2-0.1-0.4-0.2c-0.1,0-0.3-0.1-0.5-0.1c-0.3,0-0.5,0-0.7,0.1c-0.2,0.1-0.4,0.2-0.6,0.5c-0.2,0.2-0.3,0.5-0.4,0.8
			c-0.1,0.3-0.1,0.7-0.1,1.2c0,0.5,0,1,0.1,1.3c0.1,0.4,0.2,0.6,0.3,0.9c0.1,0.2,0.3,0.4,0.5,0.5c0.2,0.1,0.4,0.1,0.7,0.1
			c0.4,0,0.6-0.1,0.8-0.2c0.2-0.1,0.3-0.2,0.4-0.3l0.5,0.8c0,0.1-0.1,0.1-0.2,0.2c-0.1,0.1-0.2,0.2-0.4,0.2
			c-0.1,0.1-0.3,0.1-0.5,0.2c-0.2,0.1-0.5,0.1-0.7,0.1c-0.4,0-0.8-0.1-1.1-0.2c-0.3-0.1-0.7-0.3-0.9-0.6c-0.3-0.3-0.5-0.7-0.6-1.2
			c-0.1-0.5-0.2-1.1-0.2-1.8c0-0.7,0.1-1.3,0.3-1.7c0.2-0.5,0.4-0.9,0.7-1.2c0.3-0.3,0.6-0.5,1-0.6c0.4-0.1,0.7-0.2,1.1-0.2
			c0.3,0,0.5,0,0.7,0.1c0.2,0,0.4,0.1,0.5,0.2c0.1,0.1,0.3,0.2,0.4,0.2c0.1,0.1,0.2,0.2,0.2,0.2L88.7,24.7z M90.1,28.7
			c0-0.4,0.1-0.8,0.2-1c0.2-0.3,0.4-0.5,0.6-0.7c0.3-0.2,0.6-0.3,0.9-0.4c0.4-0.1,0.7-0.1,1.2-0.1h0.4v-0.7c0-0.6-0.1-1-0.3-1.3
			c-0.2-0.2-0.5-0.3-0.9-0.3c-0.4,0-0.7,0.1-0.9,0.2c-0.2,0.2-0.4,0.3-0.6,0.4L90.2,24c0.1-0.1,0.2-0.2,0.3-0.3
			c0.1-0.1,0.3-0.2,0.5-0.3c0.2-0.1,0.4-0.2,0.6-0.2c0.2-0.1,0.5-0.1,0.8-0.1c0.7,0,1.3,0.2,1.7,0.6c0.4,0.4,0.6,1.1,0.6,2V29
			c0,0.3,0,0.6,0,0.9c0,0.3,0,0.5,0.1,0.6h-1.1l0-0.8h0c0,0.1-0.1,0.2-0.2,0.3c-0.1,0.1-0.2,0.2-0.3,0.3c-0.1,0.1-0.3,0.2-0.4,0.2
			c-0.2,0.1-0.4,0.1-0.6,0.1c-0.3,0-0.5-0.1-0.8-0.1c-0.2-0.1-0.4-0.2-0.6-0.4c-0.2-0.2-0.3-0.4-0.4-0.6
			C90.1,29.2,90.1,29,90.1,28.7z M92.2,29.6c0.2,0,0.3,0,0.4-0.1c0.1,0,0.2-0.1,0.3-0.2c0.1-0.1,0.2-0.1,0.2-0.2
			c0.1-0.1,0.1-0.2,0.2-0.2v-1.6l-0.4,0c-0.6,0-1,0.1-1.3,0.3c-0.3,0.2-0.4,0.5-0.4,0.9c0,0.4,0.1,0.6,0.3,0.8
			C91.7,29.6,91.9,29.6,92.2,29.6z M99.5,24.3h-1.6v4c0,0.5,0.1,0.9,0.2,1c0.1,0.2,0.3,0.3,0.7,0.3c0.2,0,0.3,0,0.5-0.1
			c0.1,0,0.2-0.1,0.3-0.1l0.2,1c-0.1,0-0.2,0.1-0.4,0.2c-0.2,0.1-0.4,0.1-0.8,0.1c-0.6,0-1.1-0.2-1.4-0.5c-0.3-0.3-0.5-0.9-0.5-1.7
			v-4.1h-0.9v-0.8l0.9-0.2l0.1-2h1.1v2h1.7L99.5,24.3z M102,30.5h-1.2v-7.2h1.2V30.5z M101.4,21.6c-0.2,0-0.4-0.1-0.6-0.2
			c-0.2-0.2-0.2-0.4-0.2-0.6c0-0.2,0.1-0.5,0.2-0.6c0.1-0.2,0.3-0.2,0.6-0.2c0.2,0,0.4,0.1,0.6,0.2c0.1,0.2,0.2,0.4,0.2,0.6
			c0,0.3-0.1,0.5-0.2,0.6C101.9,21.5,101.7,21.6,101.4,21.6z M103.6,26.9c0-0.7,0.1-1.2,0.2-1.7c0.2-0.5,0.4-0.9,0.6-1.2
			c0.3-0.3,0.6-0.5,0.9-0.7c0.3-0.1,0.7-0.2,1.1-0.2c0.4,0,0.8,0.1,1.1,0.2c0.3,0.1,0.6,0.4,0.9,0.7c0.2,0.3,0.4,0.7,0.6,1.2
			c0.1,0.5,0.2,1,0.2,1.7c0,0.7-0.1,1.2-0.2,1.7c-0.2,0.5-0.4,0.9-0.6,1.2c-0.3,0.3-0.6,0.5-0.9,0.7c-0.3,0.1-0.7,0.2-1.1,0.2
			c-0.4,0-0.8-0.1-1.1-0.2c-0.3-0.1-0.6-0.4-0.9-0.7c-0.2-0.3-0.4-0.7-0.6-1.2C103.6,28.2,103.6,27.6,103.6,26.9z M107.9,26.9
			c0-1-0.1-1.7-0.4-2.1c-0.3-0.4-0.7-0.6-1.2-0.6c-0.5,0-0.9,0.2-1.2,0.6c-0.3,0.4-0.4,1.1-0.4,2.1c0,1,0.1,1.6,0.4,2.1
			c0.3,0.4,0.7,0.6,1.2,0.6c0.5,0,0.9-0.2,1.2-0.6C107.8,28.6,107.9,27.9,107.9,26.9z M114.6,30.5v-4.6c0-0.6-0.1-1-0.3-1.3
			c-0.2-0.3-0.5-0.4-0.9-0.4c-0.4,0-0.7,0.1-0.9,0.3c-0.2,0.2-0.4,0.4-0.6,0.5v5.5h-1.2v-7.2h1.1v0.8h0c0-0.1,0.1-0.1,0.2-0.3
			c0.1-0.1,0.2-0.2,0.4-0.3c0.2-0.1,0.3-0.2,0.6-0.3c0.2-0.1,0.5-0.1,0.7-0.1c0.3,0,0.6,0,0.9,0.1c0.3,0.1,0.5,0.2,0.7,0.5
			c0.2,0.2,0.3,0.5,0.4,0.8c0.1,0.3,0.1,0.7,0.1,1.2v4.7H114.6z M49.8,43.7c0-0.4,0.1-0.8,0.2-1c0.2-0.3,0.4-0.5,0.6-0.7
			c0.3-0.2,0.6-0.3,0.9-0.4c0.4-0.1,0.7-0.1,1.2-0.1h0.4v-0.7c0-0.6-0.1-1-0.3-1.3c-0.2-0.2-0.5-0.3-0.9-0.3c-0.4,0-0.7,0.1-0.9,0.2
			c-0.2,0.2-0.4,0.3-0.6,0.4L50,39.1c0.1-0.1,0.2-0.2,0.3-0.3c0.1-0.1,0.3-0.2,0.5-0.3c0.2-0.1,0.4-0.2,0.6-0.2
			c0.2-0.1,0.5-0.1,0.8-0.1c0.7,0,1.3,0.2,1.7,0.6c0.4,0.4,0.6,1.1,0.6,2v3.3c0,0.3,0,0.6,0,0.9c0,0.3,0,0.5,0.1,0.6h-1.1l0-0.8h0
			c0,0.1-0.1,0.2-0.2,0.3c-0.1,0.1-0.2,0.2-0.3,0.3c-0.1,0.1-0.3,0.2-0.4,0.2c-0.2,0.1-0.4,0.1-0.6,0.1c-0.3,0-0.5,0-0.8-0.1
			c-0.2-0.1-0.4-0.2-0.6-0.4c-0.2-0.2-0.3-0.4-0.4-0.6C49.9,44.3,49.8,44,49.8,43.7z M52,44.7c0.2,0,0.3,0,0.4-0.1
			c0.1,0,0.2-0.1,0.3-0.2c0.1-0.1,0.2-0.1,0.2-0.2c0.1-0.1,0.1-0.2,0.2-0.2v-1.6l-0.4,0c-0.6,0-1,0.1-1.3,0.3
			c-0.3,0.2-0.4,0.5-0.4,0.9c0,0.4,0.1,0.6,0.3,0.8C51.4,44.6,51.7,44.7,52,44.7z M60.1,45.6v-4.6c0-0.6-0.1-1-0.3-1.3
			c-0.2-0.3-0.5-0.4-0.9-0.4c-0.4,0-0.7,0.1-0.9,0.3c-0.2,0.2-0.4,0.4-0.6,0.5v5.5h-1.2v-7.2h1.1v0.8h0c0-0.1,0.1-0.1,0.2-0.3
			c0.1-0.1,0.2-0.2,0.4-0.3c0.2-0.1,0.3-0.2,0.6-0.3c0.2-0.1,0.5-0.1,0.7-0.1c0.3,0,0.6,0,0.9,0.1c0.3,0.1,0.5,0.2,0.7,0.5
			c0.2,0.2,0.3,0.5,0.4,0.8c0.1,0.3,0.1,0.7,0.1,1.2v4.7H60.1z M62.7,42.1c0-0.7,0.1-1.3,0.3-1.8c0.2-0.5,0.4-0.9,0.7-1.2
			c0.3-0.3,0.6-0.5,1-0.6c0.4-0.1,0.8-0.2,1.1-0.2c0.2,0,0.4,0,0.6,0.1c0.2,0,0.3,0.1,0.4,0.1V35l1.2-0.1v10.7H67v-0.8h0
			c0,0.1-0.1,0.1-0.2,0.2c-0.1,0.1-0.2,0.2-0.3,0.3c-0.1,0.1-0.3,0.2-0.5,0.3c-0.2,0.1-0.5,0.1-0.7,0.1c-0.3,0-0.7-0.1-1-0.2
			c-0.3-0.1-0.6-0.3-0.8-0.6c-0.2-0.3-0.4-0.7-0.5-1.1C62.8,43.3,62.7,42.7,62.7,42.1z M65.6,44.7c0.2,0,0.4,0,0.5-0.1
			c0.1,0,0.3-0.1,0.4-0.2c0.1-0.1,0.2-0.2,0.3-0.2c0.1-0.1,0.1-0.1,0.2-0.2v-4.4c-0.1-0.1-0.2-0.1-0.4-0.2c-0.1,0-0.3-0.1-0.5-0.1
			c-0.3,0-0.5,0-0.8,0.1c-0.2,0.1-0.5,0.3-0.6,0.5c-0.2,0.2-0.3,0.5-0.4,0.9C64,41.1,64,41.5,64,42c0,0.5,0,0.9,0.1,1.2
			c0.1,0.3,0.2,0.6,0.3,0.8c0.1,0.2,0.3,0.4,0.5,0.4C65.2,44.6,65.4,44.7,65.6,44.7z M78,45.6l-2.1-4.2c-0.1,0-0.2,0-0.3,0
			c-0.1,0-0.2,0-0.4,0h-0.6v4.2h-1.3V35.3h1.9c1.2,0,2.2,0.2,2.7,0.7c0.6,0.5,0.9,1.2,0.9,2.2c0,0.7-0.1,1.3-0.4,1.8
			c-0.3,0.5-0.7,0.9-1.3,1.1l2.4,4.5H78z M77.5,38.2c0-0.7-0.2-1.1-0.5-1.5c-0.4-0.3-0.9-0.5-1.7-0.5h-0.6v4h0.6
			c0.8,0,1.4-0.2,1.7-0.6C77.3,39.4,77.5,38.9,77.5,38.2z M85.2,40.8c0,0.3,0,0.6,0,0.8c0,0.2,0,0.4-0.1,0.6h-3.6
			c0,0.8,0.2,1.5,0.5,1.9c0.3,0.4,0.8,0.6,1.4,0.6c0.2,0,0.4,0,0.6-0.1c0.2,0,0.3-0.1,0.4-0.2c0.1-0.1,0.2-0.1,0.3-0.2
			c0.1-0.1,0.1-0.1,0.2-0.2l0.4,0.9c-0.1,0-0.1,0.1-0.2,0.2c-0.1,0.1-0.2,0.2-0.4,0.3c-0.2,0.1-0.4,0.2-0.6,0.2
			c-0.2,0.1-0.5,0.1-0.9,0.1c-0.4,0-0.8-0.1-1.2-0.2c-0.4-0.1-0.7-0.4-0.9-0.7c-0.3-0.3-0.5-0.7-0.6-1.2c-0.1-0.5-0.2-1.1-0.2-1.7
			c0-0.6,0.1-1.2,0.2-1.7c0.1-0.5,0.3-0.8,0.6-1.1c0.2-0.3,0.5-0.5,0.9-0.7c0.3-0.1,0.7-0.2,1.1-0.2c0.7,0,1.2,0.2,1.6,0.6
			C85,39.3,85.2,39.9,85.2,40.8z M83,39.2c-0.4,0-0.8,0.2-1,0.5c-0.3,0.4-0.4,0.9-0.4,1.6h2.6c0-0.1,0-0.1,0-0.2c0-0.1,0-0.2,0-0.3
			c0-0.5-0.1-0.9-0.3-1.2C83.6,39.3,83.3,39.2,83,39.2z M89.9,39.8c-0.1-0.1-0.2-0.2-0.4-0.4c-0.2-0.2-0.5-0.2-0.8-0.2
			c-0.3,0-0.6,0.1-0.7,0.2c-0.2,0.1-0.3,0.3-0.3,0.5c0,0.3,0.1,0.5,0.2,0.7c0.2,0.2,0.4,0.4,0.7,0.6l0.4,0.3
			c0.5,0.3,0.9,0.6,1.1,0.9c0.3,0.3,0.4,0.8,0.4,1.3c0,0.6-0.2,1-0.6,1.4c-0.4,0.4-1,0.6-1.7,0.6c-0.3,0-0.5,0-0.8-0.1
			c-0.2-0.1-0.4-0.1-0.6-0.2c-0.2-0.1-0.3-0.2-0.4-0.3c-0.1-0.1-0.2-0.2-0.3-0.3l0.6-1c0.1,0.1,0.1,0.1,0.2,0.2
			c0.1,0.1,0.2,0.2,0.3,0.2c0.1,0.1,0.2,0.1,0.4,0.2c0.1,0.1,0.3,0.1,0.5,0.1c0.4,0,0.6-0.1,0.8-0.2c0.2-0.2,0.3-0.4,0.3-0.6
			c0-0.2,0-0.3-0.1-0.4c0-0.1-0.1-0.2-0.2-0.3c-0.1-0.1-0.2-0.2-0.3-0.3c-0.1-0.1-0.3-0.2-0.4-0.3L88,42.2c-0.4-0.3-0.8-0.6-1-0.9
			c-0.3-0.3-0.4-0.7-0.4-1.2c0-0.3,0.1-0.5,0.2-0.7c0.1-0.2,0.3-0.4,0.4-0.6c0.2-0.2,0.4-0.3,0.7-0.4c0.3-0.1,0.5-0.1,0.8-0.1
			c0.3,0,0.5,0,0.7,0.1c0.2,0.1,0.4,0.1,0.5,0.2c0.1,0.1,0.3,0.2,0.4,0.3c0.1,0.1,0.2,0.2,0.2,0.2L89.9,39.8z M96.6,40.8
			c0,0.3,0,0.6,0,0.8c0,0.2,0,0.4-0.1,0.6h-3.6c0,0.8,0.2,1.5,0.5,1.9c0.3,0.4,0.8,0.6,1.4,0.6c0.2,0,0.4,0,0.6-0.1
			c0.2,0,0.3-0.1,0.4-0.2c0.1-0.1,0.2-0.1,0.3-0.2c0.1-0.1,0.1-0.1,0.2-0.2l0.4,0.9c-0.1,0-0.1,0.1-0.2,0.2
			c-0.1,0.1-0.2,0.2-0.4,0.3c-0.2,0.1-0.4,0.2-0.6,0.2c-0.2,0.1-0.5,0.1-0.9,0.1c-0.4,0-0.9-0.1-1.2-0.2c-0.4-0.1-0.7-0.4-0.9-0.7
			c-0.2-0.3-0.4-0.7-0.6-1.2c-0.1-0.5-0.2-1.1-0.2-1.7c0-0.6,0.1-1.2,0.2-1.7c0.1-0.5,0.3-0.8,0.6-1.1c0.2-0.3,0.5-0.5,0.9-0.7
			c0.3-0.1,0.7-0.2,1.1-0.2c0.7,0,1.2,0.2,1.6,0.6C96.4,39.3,96.6,39.9,96.6,40.8z M94.4,39.2c-0.4,0-0.8,0.2-1,0.5
			c-0.3,0.4-0.4,0.9-0.4,1.6h2.6c0-0.1,0-0.1,0-0.2c0-0.1,0-0.2,0-0.3c0-0.5-0.1-0.9-0.3-1.2C95,39.3,94.7,39.2,94.4,39.2z
			 M97.8,43.7c0-0.4,0.1-0.8,0.2-1c0.2-0.3,0.4-0.5,0.6-0.7c0.3-0.2,0.6-0.3,0.9-0.4c0.4-0.1,0.7-0.1,1.2-0.1h0.4v-0.7
			c0-0.6-0.1-1-0.3-1.3c-0.2-0.2-0.5-0.3-0.9-0.3c-0.4,0-0.7,0.1-0.9,0.2c-0.2,0.2-0.4,0.3-0.6,0.4L98,39.1c0.1-0.1,0.2-0.2,0.3-0.3
			c0.1-0.1,0.3-0.2,0.5-0.3c0.2-0.1,0.4-0.2,0.6-0.2c0.2-0.1,0.5-0.1,0.8-0.1c0.7,0,1.3,0.2,1.7,0.6c0.4,0.4,0.6,1.1,0.6,2v3.3
			c0,0.3,0,0.6,0,0.9c0,0.3,0,0.5,0.1,0.6h-1.1l0-0.8h0c0,0.1-0.1,0.2-0.2,0.3c-0.1,0.1-0.2,0.2-0.3,0.3c-0.1,0.1-0.3,0.2-0.4,0.2
			c-0.2,0.1-0.4,0.1-0.6,0.1c-0.3,0-0.5,0-0.8-0.1c-0.2-0.1-0.4-0.2-0.6-0.4c-0.2-0.2-0.3-0.4-0.4-0.6C97.9,44.3,97.8,44,97.8,43.7z
			 M100,44.7c0.2,0,0.3,0,0.4-0.1c0.1,0,0.2-0.1,0.3-0.2c0.1-0.1,0.2-0.1,0.2-0.2c0.1-0.1,0.1-0.2,0.2-0.2v-1.6l-0.4,0
			c-0.6,0-1,0.1-1.3,0.3c-0.3,0.2-0.4,0.5-0.4,0.9c0,0.4,0.1,0.6,0.3,0.8C99.4,44.6,99.7,44.7,100,44.7z M107.3,39.5
			c0,0-0.1,0-0.2-0.1c-0.1,0-0.2,0-0.4,0c-0.4,0-0.7,0.1-0.9,0.3c-0.2,0.2-0.4,0.4-0.5,0.7v5.3h-1.2v-7.2h1.1v1h0
			c0-0.1,0.1-0.3,0.2-0.4c0.1-0.1,0.2-0.3,0.3-0.4c0.1-0.1,0.3-0.2,0.4-0.2c0.2-0.1,0.4-0.1,0.6-0.1c0.2,0,0.3,0,0.4,0
			c0.1,0,0.2,0.1,0.2,0.1L107.3,39.5z M112.3,39.8c0,0-0.1-0.1-0.1-0.1c-0.1-0.1-0.1-0.1-0.2-0.2c-0.1-0.1-0.2-0.1-0.4-0.2
			c-0.1,0-0.3-0.1-0.5-0.1c-0.3,0-0.5,0-0.7,0.1c-0.2,0.1-0.4,0.2-0.6,0.5c-0.2,0.2-0.3,0.5-0.4,0.8c-0.1,0.3-0.1,0.7-0.1,1.2
			c0,0.5,0,1,0.1,1.3c0.1,0.4,0.2,0.6,0.4,0.9c0.1,0.2,0.3,0.4,0.5,0.5c0.2,0.1,0.4,0.1,0.7,0.1c0.4,0,0.6-0.1,0.8-0.2
			c0.2-0.1,0.3-0.2,0.4-0.3l0.5,0.8c-0.1,0.1-0.1,0.1-0.2,0.2c-0.1,0.1-0.2,0.2-0.4,0.2c-0.1,0.1-0.3,0.1-0.5,0.2
			c-0.2,0.1-0.5,0.1-0.7,0.1c-0.4,0-0.8-0.1-1.1-0.2c-0.4-0.1-0.7-0.3-0.9-0.6c-0.3-0.3-0.5-0.7-0.6-1.2c-0.2-0.5-0.2-1.1-0.2-1.8
			c0-0.7,0.1-1.3,0.3-1.7c0.2-0.5,0.4-0.9,0.7-1.2c0.3-0.3,0.6-0.5,1-0.6c0.4-0.1,0.7-0.2,1.1-0.2c0.3,0,0.5,0,0.7,0.1
			c0.2,0.1,0.4,0.1,0.5,0.2c0.1,0.1,0.3,0.2,0.4,0.2c0.1,0.1,0.2,0.2,0.2,0.2L112.3,39.8z M118,45.6v-4.6c0-0.6-0.1-1-0.3-1.3
			c-0.2-0.3-0.5-0.4-0.9-0.4c-0.4,0-0.7,0.1-0.9,0.3c-0.2,0.2-0.4,0.4-0.6,0.5v5.5h-1.2V35l1.2-0.1v4.3h0c0-0.1,0.1-0.1,0.2-0.2
			c0.1-0.1,0.2-0.2,0.3-0.3c0.2-0.1,0.3-0.2,0.5-0.3c0.2-0.1,0.5-0.1,0.8-0.1c0.6,0,1.1,0.2,1.5,0.6c0.4,0.4,0.6,1.1,0.6,2v4.7H118z
			"/>
		<g>
			<g>
				<path d="M25.4,14.2c1.3,2,2.3,2,3.8,2c-1.3-1-2.1-2.2-2.5-2.8l-2.3-3.8c-0.2-1.2-0.8-2.2-1.7-3.1c0.3-0.1,0.6-0.2,0.7-0.3
					c-1.5,0-3-0.8-3.9-0.8c-0.5,0-0.9,0.3-0.9,0.7c0,0.5,0.5,1,1.4,1c0.2,0,0.5,0,0.7-0.1c0.5,0.7,0.9,1.3,0.9,2.2
					c0,1.6-2,2.9-3.9,2.9c-0.1,0-0.2,0-0.3,0c-0.2-0.4-0.8-1.1-0.8-1.9c0-1.3,0.8-2.4,0.8-3.7c0-0.8-0.4-1.3-0.5-1.5
					c0.2-0.2,0.5-0.5,0.6-0.7c-0.1,0.1-0.3,0.1-0.6,0.1c-0.9,0-1.7-0.2-2.5-0.2c-0.4,0-0.5,0.1-0.5,0.3c0,0,0,0.1,0,0.1
					c-0.2-0.1-0.3-0.1-0.5-0.1c-0.2,0-0.5-0.1-0.7-0.1c-0.9,0-1.2,0.4-1.2,0.7c0,0.3,0.2,0.8,0.5,1.2c0.4-0.2,0.8-0.3,1-0.3
					c0.5,0,0.9,0.5,1.1,1C13.8,7,13.7,7,13.4,7c-0.9,0-1.5-0.3-1.6-0.3c0,0,0,0,0,0c0,0.1,0.3,0.5,0.8,0.6c0.7,0.2,1.6,0.3,1.8,0.4
					c0,0-0.2,0.3-0.4,0.4c0,0-0.1,0-0.1,0C13.1,8,12.9,8,12.1,7.6c0,0,0,0,0,0c0,0.3,0.9,1.1,1.7,1.4c-0.7,0.9-1.5,1.7-1.9,3.1
					c-0.1,0-0.2,0-0.3,0c-2,0-3.9-1.3-3.9-2.9c0-0.9,0.4-1.5,0.9-2.2c0.3,0,0.5,0.1,0.7,0.1c0.9,0,1.4-0.5,1.4-1
					c0-0.4-0.3-0.7-0.9-0.7c-0.8,0-2.3,0.8-3.9,0.8C6,6.3,6.2,6.4,6.5,6.5C5.6,7.3,5,8.4,4.8,9.6l-2.3,3.8C2.1,14,1.3,15.2,0,16.2
					c1.5,0,2.5,0,3.8-2L5,12.2c0.1,0.3,0.2,0.5,0.3,0.7l-2.4,3.8c-0.4,0.6-1.2,1.9-2.5,2.8c1.5,0,2.5,0,3.8-2l2.1-3.3
					c0.2,0.2,0.3,0.3,0.5,0.5l-2.9,4.7c-0.4,0.6-1.2,1.9-2.5,2.8c1.5,0,2.5,0,3.8-2L8,15.8c0.2,0.1,0.4,0.2,0.6,0.3l-3.4,5.5
					c-0.4,0.6-1.2,1.9-2.5,2.8c1.5,0,2.5,0,3.8-2l3.5-5.7c0.2,0.1,0.4,0.2,0.6,0.2l-4,6.4c-0.4,0.6-1.2,1.9-2.5,2.8
					c1.5,0,2.5,0,3.8-2l4.3-6.9c0,0,0.1,0,0.1,0c0.1,0.4,0.2,0.7,0.2,1.1c0,2.2-1.4,4.1-3.1,5.5c0.1,0,0.3,0.1,0.5,0.1
					c0.3,0,0.6,0,0.7,0c-0.4,0.9-1.2,2.1-1.7,2.6c-0.6-0.1-1.4-0.2-1.9-0.2c-0.6,0-0.6,0.3-0.6,0.6c0,0.5,0.2,0.9,0.5,1.1
					c0.1-0.3,0.3-0.6,1.3-0.6c0,0,0.1,0,0.1,0c-0.3,0.3-1.2,1.1-1.2,1.7c0,0.4,0.4,1,1,1c0-0.1,0-0.2,0-0.3c0-0.5,0.4-1.1,0.8-1.5
					c0,0.1,0,0.1,0,0.2c0,1.2,0.1,1.7,0.8,1.7c0.4,0,0.6-0.2,0.7-0.3c-0.5-0.4-0.5-0.8-0.5-1.4c0-0.2,0-0.3,0-0.6c0-0.1,0-0.3,0-0.5
					c0.3,0,0.4,0,0.6,0c0,0,1.1-0.1,1.3,0.5c0.3-0.3,0.7-0.6,0.7-1c0-0.3-0.1-0.6-0.7-0.6c-0.2,0-0.8,0.1-1.4,0.1
					c0.1-0.3,0.8-1.3,1.3-2c0.1,0.3,0.2,0.6,0.5,0.8c0-0.4,0.3-1.8,1-2.7c0.1,0.6,0.2,1.1,0.2,2.3c0,2.9-0.7,5-2.2,5.5
					c0.2,0.3,0.6,0.6,1,0.6c0.5,0,0.8-0.6,1.1-1.2c0.2,0.4,0.6,1.5,1,1.5c0.4,0,0.9-1,1-1.5c0.3,0.6,0.6,1.2,1.1,1.2
					c0.4,0,0.8-0.3,1-0.6c-1.5-0.4-2.2-2.6-2.2-5.5c0-1.2,0.1-1.8,0.2-2.3c0.7,0.8,0.9,2.2,1,2.7c0.3-0.2,0.4-0.5,0.5-0.8
					c0.6,0.7,1.2,1.6,1.3,2c-0.5,0-1.2-0.1-1.4-0.1c-0.5,0-0.7,0.3-0.7,0.6c0,0.4,0.4,0.8,0.7,1c0.3-0.5,1.3-0.5,1.3-0.5
					c0.2,0,0.3,0,0.6,0c0,0.1,0,0.3,0,0.5c0,0.2,0,0.4,0,0.6c0,0.7,0,1-0.5,1.4c0.1,0.1,0.3,0.3,0.7,0.3c0.7,0,0.8-0.5,0.8-1.7
					c0-0.1,0-0.1,0-0.2c0.4,0.4,0.8,1,0.8,1.5c0,0.1,0,0.2,0,0.3c0.6,0,1-0.6,1-1c0-0.6-0.9-1.4-1.2-1.7c0,0,0.1,0,0.1,0
					c1,0,1.2,0.3,1.3,0.6c0.3-0.2,0.5-0.6,0.5-1.1c0-0.3-0.1-0.6-0.6-0.6c-0.5,0-1.3,0.1-1.9,0.2c-0.4-0.6-1.3-1.8-1.7-2.6
					c0.2,0,0.4,0,0.7,0c0.2,0,0.4,0,0.5-0.1c-1.7-1.5-3.1-3.4-3.1-5.5c0-0.3,0.1-0.7,0.2-1.1c0,0,0.1,0,0.1,0l4.3,6.9
					c1.3,2,2.3,2,3.8,2c-1.2-1-2.1-2.2-2.5-2.8l-4-6.4c0.2-0.1,0.4-0.1,0.6-0.2l3.5,5.7c1.3,2,2.3,2,3.8,2c-1.3-1-2.1-2.2-2.5-2.8
					l-3.4-5.5c0.2-0.1,0.4-0.2,0.6-0.3l2.8,4.5c1.3,2,2.3,2,3.8,2c-1.3-1-2.1-2.2-2.5-2.8l-2.9-4.7c0.2-0.2,0.3-0.3,0.5-0.5l2.1,3.3
					c1.3,2,2.3,2,3.8,2c-1.3-1-2.1-2.2-2.5-2.8L23.9,13c0.1-0.2,0.2-0.5,0.3-0.7L25.4,14.2z M6.3,9.8c0-1.4,1-2.6,1.4-2.9
					c0.1,0,0.2,0,0.3,0.1C7.5,7.4,6.9,8.2,6.9,9.3c0,2.1,2.2,3.9,4.8,3.9c0,0.2,0,0.4,0,0.6c0,0.3,0,0.6,0,0.9
					C8.8,14.6,6.3,12.3,6.3,9.8z M10.1,26.9L10.1,26.9L10.1,26.9c0.8,0,1.2,0,1.5,0c0.1,0,0.2,0,0.3,0c0.2,0,0.4,0,0.4,0.3
					c0,0.2-0.2,0.4-0.4,0.6c-0.3-0.3-0.7-0.3-1.3-0.3c-0.3,0-0.6,0.1-0.8,0.1l0,0l0,0l0,0.1c0,0.2,0.1,0.4,0.1,0.7l0,0.3l0,0.3
					c0,0.7,0.1,1.1,0.3,1.4c-0.1,0-0.2,0-0.2,0c-0.4,0-0.5-0.2-0.5-1.4c0-0.2,0-0.5,0-0.6l0-0.2l-0.1,0c-0.6,0.5-1.3,1.3-1.3,2
					c-0.2-0.1-0.4-0.4-0.4-0.6c0-0.4,0.5-0.9,1.1-1.5L9,27.5l0,0l-0.1,0c-0.1,0-0.4-0.1-0.6-0.1c-0.7,0-1.1,0.1-1.4,0.4
					c-0.1-0.1-0.2-0.5-0.2-0.6c0-0.1,0-0.2,0.1-0.3C7,26.8,7,26.8,7.1,26.8h0c0.8,0,1.6,0.1,2,0.2l0,0l0,0c0.1-0.1,1.5-2,1.9-3
					c0.1,0,0.2-0.1,0.3-0.1c0.3,0,0.4,0.2,0.4,0.5C10.9,25.5,10.3,26.3,10.1,26.9z M17.9,23.9c0.1,0,0.2,0,0.3,0.1
					c0.4,1,1.8,2.9,1.9,3l0,0l0,0c0.4-0.1,1.2-0.2,2-0.2h0c0.1,0,0.2,0,0.2,0.1c0,0,0.1,0.1,0.1,0.3c0,0.2-0.1,0.5-0.2,0.6
					c-0.3-0.3-0.7-0.4-1.4-0.4c-0.2,0-0.4,0.1-0.6,0.1l-0.1,0l-0.1,0l0.4,0.4c0.6,0.6,1.1,1.1,1.1,1.5c0,0.2-0.2,0.5-0.4,0.6
					c0-0.6-0.7-1.5-1.3-2l-0.1,0l0,0.2c0,0.2,0,0.4,0,0.6c0,1.2-0.1,1.4-0.5,1.4c-0.1,0-0.2,0-0.2,0c0.2-0.3,0.3-0.7,0.3-1.4l0-0.3
					l0-0.3c0-0.3,0-0.5,0.1-0.7l0-0.1l-0.1,0c-0.2,0-0.6-0.1-0.8-0.1c-0.6,0-1,0.1-1.3,0.3c-0.2-0.2-0.4-0.4-0.4-0.6
					c0-0.3,0.2-0.3,0.4-0.3c0.1,0,0.2,0,0.3,0c0.3,0,0.6,0.1,1.4,0.1h0l0,0c-0.2-0.6-0.8-1.4-1.7-2.5C17.5,24.1,17.6,23.9,17.9,23.9
					z M14.5,7.2c-0.1-0.4-0.3-0.8-0.5-1c-0.2-0.3-0.6-0.6-1.1-0.6c-0.2,0-0.6,0.1-0.8,0.2c-0.1-0.2-0.3-0.6-0.3-0.7
					c0-0.2,0.3-0.4,0.9-0.4c1.3,0,2.1,0.6,2.1,1.6C14.8,6.6,14.7,6.9,14.5,7.2z M15.1,5.9c0-0.3-0.2-0.5-0.3-0.7
					c0-0.3,0.1-0.5,0.5-0.3c-0.2,0.2,0,0.6,0,0.6s0.4-0.2,0.4-0.5C16.3,5.2,15.8,6.1,15.1,5.9z M17.6,14.6c0-0.3,0.1-0.6,0.1-0.9
					c0-0.2,0-0.3,0-0.6c2.5,0,4.7-1.8,4.7-3.9c0-1.1-0.7-1.9-1.1-2.3c0.1,0,0.2,0,0.3-0.1c0.4,0.3,1.4,1.5,1.4,2.9
					C22.9,12.2,20.5,14.6,17.6,14.6z"/>
			</g>
			<g>
				<polygon class="st0" points="39.3,55.6 41.2,55.6 41.2,80.7 36.8,80.7 36.8,55.6 				"/>
				<polygon class="st1" points="39.3,30.4 41.2,30.4 41.2,55.6 36.8,55.6 36.8,30.4 				"/>
				<polygon points="41.2,5.4 41.2,30.5 39.3,30.5 36.8,30.5 36.8,5.4 				"/>
			</g>
		</g>
	</g>
</g>
<g id="Ebene_3">
</g>
</svg>
