<svg xmlns="http://www.w3.org/2000/svg" id="Laag_1" x="0" y="0" version="1.1" viewBox="0 0 68.9 34.5" xml:space="preserve"><style>.st0{fill:#dc1218}</style><path d="M50.6 13.9v-.7c1.9-1.3 3.1-2.2 3.4-4.1.1-.7-.1-1.6-.7-2.4-1.7-2.2-5.6-3.4-9.1-4C27.1-.3 10.8 6 9.5 6.6v-.5C11 5.2 29.6-2.4 47.6.8c3.5.6 6.7 1.6 8.5 3.9.7.9.9 1.9.8 2.8-.5 2.3-3.8 5-6.3 6.4M59.2 16c4 0 7 3.1 7 7.1 0 4.1-3 7.3-7.1 7.3-4 0-7-3.1-7-7.2 0-4.2 3-7.2 7.1-7.2m-.1-2.6c-5.6 0-9.7 4.1-9.7 9.8 0 5.5 4.1 9.7 9.5 9.7 5.7 0 9.9-4.1 9.9-9.7.1-5.7-4.1-9.8-9.7-9.8" class="st0"/><path d="M16.8 13.6h-2.5v14.8L2.1 13.6H0v19h2.4V18l12.1 14.6h2.3z"/><g><path d="M43.9 20.7c-2.6 4.5-12.1 13.9-12.1 13.9h-.9c3.1-5.4 4.2-13.9 4.5-14.1v-.1s-2.1 4.1-6.4 8.5c-4.3 4.3-5.9 5.7-5.9 5.7h-1c3.3-6.1 5.3-13 5.3-16.4 0-1-.1-1.6-.7-1.6-1.3 0-2.6 2.2-3.3 3.8h-1c1.4-3.1 4.8-7.2 6.8-7.2 1.2 0 1.6 1.4 1.6 2.7 0 6.4-4.5 14.8-4.9 15.1 0 .1.2.1.2.1.2-.9 3.8-4 6.8-8.6 2.9-4.5 5.2-9.5 5.4-9.5.1-.1.5.8.5 2.9 0 7.3-3.5 14.3-4.3 15.2 0 .1.1.1.1.1.3-.7 3.4-3.8 5.4-6.4.7-1 3.7-4.9 3.5-8.5 0 0 .4-.8 1.8-2.2 0 0 1-1 1.5-1 .3 0 .3.7.3.7-.3 2.1-2.6 5.8-3.2 6.9"/></g></svg>