<svg xmlns="http://www.w3.org/2000/svg" viewBox="0 0 501.84 203.02"><path fill="#00d29a" d="M60.7 133.84c27.93-22.52 63.62-36.09 102.53-36.26H1l59.7 36.26zM77.44 82.45h53.45c.62 0 1.11-.49 1.11-1.1V67.58c0-.61-.5-1.1-1.11-1.1H96.34c-.62 0-1.11-.49-1.11-1.09V49.96c0-.6.5-1.09 1.11-1.09h25.47c.61 0 1.11-.49 1.11-1.09V34.54c0-.6-.5-1.09-1.11-1.09H96.34c-.62 0-1.11-.49-1.11-1.09V18.29c0-.61.5-1.1 1.11-1.1h34.55c.62 0 1.11-.49 1.11-1.09V2.46c0-.6-.5-1.09-1.11-1.09H77.44c-.62 0-1.11.49-1.11 1.09v78.89c0 .61.5 1.1 1.11 1.1zM11.87 77.17c6.21 4.35 14.65 6.65 24.39 6.65 9 0 17.09-2.4 22.79-6.77 5.97-4.58 9.13-11.09 9.13-18.83 0-11.93-7.04-19.37-21.53-22.76l-16.73-3.84c-5.52-1.19-8.33-3.95-8.33-8.22 0-5.43 4.83-8.95 12.31-8.95 7.97 0 11.91 3.85 13.87 7.64.19.36.57.59.98.59h16.84c.73 0 1.27-.68 1.08-1.37-1.57-5.73-4.77-10.6-9.36-14.21C51.4 2.45 43.26 0 33.75 0c-8.91 0-16.93 2.53-22.58 7.12-5.74 4.66-8.77 11.1-8.77 18.61 0 11.7 6.81 18.88 20.81 21.93l16.45 3.42c4.86 1.1 9.34 2.89 9.34 8.5 0 5.85-5.16 9.63-13.15 9.63-7.15 0-12.28-2.83-14.65-8.01-.18-.39-.58-.63-1.01-.63H2.12c-.74 0-1.28.7-1.07 1.39 1.84 6.31 5.54 11.51 10.82 15.21zM162.27 1.37h-17.09c-.62 0-1.11.49-1.11 1.09v78.89c0 .6.5 1.09 1.11 1.09h17.09c.61 0 1.11-.49 1.11-1.09V2.46c.01-.6-.49-1.09-1.11-1.09z"/><linearGradient id="a" x1="60.896" x2="199.171" y1="95.733" y2="164.613" gradientUnits="userSpaceOnUse"><stop offset="0" stop-color="#00d29a" stop-opacity="0"/><stop offset="1" stop-color="#00d29a"/></linearGradient><path fill="url(#a)" d="M163.92 97.57h-.76c-20.66-.36-42.53 4.37-61.75 12.22C86.83 115.76 72.9 124 60.7 133.84c34.41 20.9 68.81 41.79 103.22 62.69V97.57z"/><linearGradient id="b" x1="30.909" x2="29.713" y1="200.807" y2="96.153" gradientUnits="userSpaceOnUse"><stop offset="0" stop-color="#00d29a" stop-opacity="0"/><stop offset="1" stop-color="#00d29a"/></linearGradient><path fill="url(#b)" d="M1 97.57v160.07h.05c0-49.89 23.23-94.45 59.64-123.81L1 97.57z"/><path fill="#00d29a" d="M394.98 173.51c3.24 0 5.02 2.36 5.08 5.35h-11c.71-3.5 2.87-5.35 5.92-5.35m5.34 13.38c-.64 2.42-2.61 3.57-5.28 3.57-3.5 0-5.91-2.55-6.17-6.81h18.94v-2.42c0-8.34-4.58-14.14-12.91-14.14-7.94 0-13.66 6.3-13.66 14.9 0 8.79 5.53 14.84 13.79 14.84 7.12 0 11.57-3.88 12.59-9.94h-7.3zm-37.25.7c0 6.3 3.63 9.17 9.41 9.17 2.1 0 4-.32 5.08-.89v-7.01c-.89.57-2.23.96-3.43.96-2.03 0-3.24-1.02-3.24-3.25v-12.48h6.23v-6.37h-6.23v-8.79h-7.82v8.79h-4.32v6.37h4.32v13.5zm-8.51-19.87h-7.95v18.08c-.57 2.48-2.67 3.95-5.08 3.95-3.12 0-4.58-2.04-4.58-5.03v-17h-7.88v18.59c0 6.3 3.63 10.51 9.98 10.51 3.3 0 6.04-1.47 7.63-3.25v2.61h7.88v-28.46zm-45.32 19.87c0 6.3 3.62 9.17 9.41 9.17 2.1 0 4-.32 5.08-.89v-7.01c-.89.57-2.23.96-3.43.96-2.03 0-3.24-1.02-3.24-3.25v-12.48h6.23v-6.37h-6.23v-8.79h-7.82v8.79h-4.32v6.37h4.32v13.5zm-7.88-28.08c0-2.61-2.16-4.52-4.64-4.52-2.54 0-4.7 1.91-4.7 4.52 0 2.67 2.16 4.52 4.7 4.52 2.47 0 4.64-1.85 4.64-4.52m-.7 8.21h-7.88v28.47h7.88v-28.47zm-28.1 19.87c0 6.3 3.62 9.17 9.41 9.17 2.1 0 4-.32 5.08-.89v-7.01c-.89.57-2.23.96-3.43.96-2.03 0-3.24-1.02-3.24-3.25v-12.48h6.23v-6.37h-6.23v-8.79h-7.82v8.79h-4.33v6.37h4.33v13.5zm-31.33.13c.83 5.79 5.72 9.11 12.65 9.11 6.61 0 11.63-3.44 11.63-9.23 0-4.33-2.61-7.07-7.56-8.28l-5.85-1.34c-1.78-.45-2.54-1.08-2.54-2.23 0-1.78 1.85-2.67 3.75-2.67 2.6 0 3.94 1.21 4.45 2.8h7.5c-.95-5.35-4.9-8.79-12.08-8.79-6.36 0-11.31 3.69-11.31 9.23 0 4.77 3.05 7 7.37 8.02l5.72 1.27c1.97.51 2.86 1.15 2.86 2.42 0 1.85-1.59 2.8-4 2.8-2.35 0-4.13-1.08-4.77-3.12h-7.82zm-30.26 8.46h7.88v-18.02c.63-2.48 2.73-3.95 5.15-3.95 3.11 0 4.64 2.04 4.64 5.03v16.94h7.88v-18.59c0-6.31-3.63-10.51-10.04-10.51-3.3 0-6.1 1.46-7.63 3.25v-2.61h-7.88v28.46zm-7.12-41.2h-8.13v41.2h8.13v-41.2zM488.35 131.62c0 6.3 3.62 9.17 9.41 9.17 2.1 0 4-.32 5.08-.89v-7c-.89.57-2.23.95-3.43.95-2.03 0-3.24-1.02-3.24-3.25v-12.48h6.23v-6.37h-6.23v-8.79h-7.82v8.79h-4.33v6.37h4.33v13.5zm-32.54 8.59h7.88v-18.02c.63-2.49 2.73-3.95 5.15-3.95 3.12 0 4.64 2.04 4.64 5.03v16.94h7.88v-18.59c0-6.3-3.62-10.51-10.04-10.51-3.3 0-6.1 1.46-7.63 3.25v-2.61h-7.88v28.46zm-16.59-22.66c3.24 0 5.02 2.35 5.08 5.35h-11c.71-3.51 2.87-5.35 5.92-5.35m5.34 13.37c-.64 2.42-2.6 3.57-5.28 3.57-3.5 0-5.91-2.55-6.16-6.82h18.94v-2.42c0-8.34-4.58-14.14-12.9-14.14-7.95 0-13.67 6.3-13.67 14.9 0 8.79 5.53 14.83 13.79 14.83 7.12 0 11.57-3.88 12.59-9.93h-7.31zm-40.49-16.18c-1.59-2.1-4.26-3.63-7.63-3.63-3.18 0-5.78 1.21-7.18 2.99v-2.35h-7.88v28.46h7.88v-18.34c.51-2.42 2.41-3.69 4.45-3.69 2.73 0 4 2.04 4 5.09v16.94h7.95v-18.34c.51-2.42 2.35-3.69 4.38-3.69 2.73 0 4.07 2.04 4.07 5.09v16.94H422v-18.59c0-6.43-3.5-10.51-9.34-10.51-4.01 0-6.74 1.6-8.59 3.63m-53.52 25.47h7.88v-18.02c.64-2.49 2.73-3.95 5.15-3.95 3.11 0 4.64 2.04 4.64 5.03v16.94h7.88v-18.59c0-6.3-3.63-10.51-10.04-10.51-3.3 0-6.1 1.46-7.63 3.25v-2.61h-7.88v28.46zm-11.57-14.2c0 4.71-2.16 8.15-6.1 8.15-3.94 0-6.1-3.44-6.1-8.15 0-4.78 2.16-8.21 6.1-8.21 3.94 0 6.1 3.44 6.1 8.21m7.82 0c0-8.79-5.66-14.9-13.92-14.9s-13.92 6.11-13.92 14.9c0 8.72 5.66 14.83 13.92 14.83s13.92-6.1 13.92-14.83m-29.17-14.39c-.44-.25-1.65-.51-2.99-.51-2.8 0-5.15 1.4-6.36 3.44v-2.8h-7.88v28.46h7.88v-17.64c.57-2.61 2.73-4.01 5.4-4.01 1.46 0 2.86.32 3.94.96v-7.9zm-22.12-8.08c0-2.61-2.16-4.52-4.64-4.52-2.54 0-4.7 1.91-4.7 4.52 0 2.67 2.16 4.52 4.7 4.52 2.48 0 4.64-1.85 4.64-4.52m-.7 8.21h-7.88v28.47h7.88v-28.47zm-21.67 28.46l10.81-28.46H276l-6.42 18.91-6.55-18.91h-8.26l10.74 28.46h7.63zm-46.21 0h7.88v-18.02c.64-2.49 2.73-3.95 5.15-3.95 3.12 0 4.64 2.04 4.64 5.03v16.94h7.88v-18.59c0-6.3-3.62-10.51-10.04-10.51-3.3 0-6.1 1.46-7.63 3.25v-2.61h-7.88v28.46zm-31.21-41.25v41.26h26.5v-7.19h-18.49v-10.38h16.78v-6.94h-16.78v-9.61h18.49v-7.13h-26.5zM444.43 56.34c-1.59-2.1-4.26-3.63-7.63-3.63-3.18 0-5.78 1.21-7.18 2.99v-2.36h-7.88v28.47h7.88V63.47c.51-2.42 2.42-3.69 4.45-3.69 2.73 0 4 2.04 4 5.09v16.94h7.94V63.47c.51-2.42 2.35-3.69 4.39-3.69 2.73 0 4.07 2.04 4.07 5.09v16.94h7.88V63.22c0-6.43-3.5-10.51-9.34-10.51-4 0-6.74 1.59-8.58 3.63m-29.55-15.92H407v41.39h7.88V40.42zm-20.73 27.19c0 4.71-2.16 8.15-6.1 8.15-3.94 0-6.1-3.44-6.1-8.15 0-4.77 2.16-8.21 6.1-8.21 3.94-.01 6.1 3.44 6.1 8.21m7.82 0c0-8.79-5.66-14.9-13.92-14.9s-13.92 6.12-13.92 14.9c0 8.72 5.66 14.84 13.92 14.84s13.92-6.12 13.92-14.84m-58.15 14.2h7.88V63.79c.64-2.48 2.73-3.95 5.15-3.95 3.11 0 4.64 2.04 4.64 5.03v16.94h7.88V63.22c0-6.31-3.62-10.51-10.04-10.51-3.3 0-6.1 1.47-7.63 3.25V40.42h-7.88v41.39zm-13.23 0h9.35l-11.95-16.36 11.51-12.1h-9.79l-9.73 10.57v-23.5h-7.88v41.39h7.88v-8.98l2.29-2.48 8.32 11.46zm-49.45-14.2c0 8.79 5.59 14.84 13.66 14.84 7.12 0 11.63-4.14 12.46-10.25h-7.76c-.45 2.17-2.16 3.5-4.7 3.5-3.62 0-5.85-3.31-5.85-8.09 0-4.84 2.23-8.15 5.85-8.15 2.55 0 4.26 1.34 4.7 3.5h7.76c-.83-6.05-5.34-10.25-12.46-10.25-8.06 0-13.66 6.05-13.66 14.9m-11.31 0c0 4.71-2.16 8.15-6.1 8.15-3.94 0-6.1-3.44-6.1-8.15 0-4.77 2.16-8.21 6.1-8.21 3.94-.01 6.1 3.44 6.1 8.21m7.82 0c0-8.79-5.66-14.9-13.92-14.9s-13.92 6.12-13.92 14.9c0 8.72 5.66 14.84 13.92 14.84s13.92-6.12 13.92-14.84m-46.02 5.6c0 6.31 3.62 9.17 9.41 9.17 2.1 0 4-.32 5.08-.89v-7.01c-.89.57-2.22.95-3.43.95-2.03 0-3.24-1.02-3.24-3.25V59.72h6.23v-6.37h-6.23v-8.78h-7.82v8.78h-4.32v6.37h4.32v13.49zm-37.5-2.54c1.33 7.45 7.5 11.78 16.21 11.78 8.26 0 14.49-4.59 14.49-12.16 0-5.92-3.88-9.55-10.23-11.01l-7.12-1.66c-2.93-.7-4.38-2.04-4.38-4.27 0-2.8 2.48-4.58 6.16-4.58 4.07 0 6.29 2.04 7.18 4.65h8.07c-1.27-6.62-6.42-11.34-15.32-11.34-8.2 0-14.05 4.97-14.05 12.04 0 6.43 4.32 9.42 9.91 10.7l6.99 1.59c3.37.76 4.77 2.04 4.77 4.39 0 3.12-2.6 4.9-6.55 4.9-3.81 0-6.67-1.59-7.76-5.03h-8.37z"/></svg>