<?xml version="1.0" encoding="utf-8"?>
<!-- Generator: Adobe Illustrator 22.0.1, SVG Export Plug-In . SVG Version: 6.00 Build 0)  -->
<svg version="1.1" id="Layer_1" xmlns="http://www.w3.org/2000/svg" xmlns:xlink="http://www.w3.org/1999/xlink" x="0px" y="0px"
	 viewBox="0 0 481.7 65.8" style="enable-background:new 0 0 481.7 65.8;" xml:space="preserve">
<style type="text/css">
	.st0{fill:#FDC300;}
	.st1{fill:#8A1B02;}
	.st2{fill:#006378;}
	.st3{fill:#007AB1;}
	.st4{fill:#009640;}
	.st5{fill:#CB9F00;}
</style>
<path d="M49.3,32.9C49.3,14.6,64.3,0,83,0c18.7,0,33.7,14.6,33.7,32.9c0,18.3-15.1,32.9-33.7,32.9C64.3,65.8,49.3,51.2,49.3,32.9z
	 M107.2,32.9c0-13.6-10.5-24-24.2-24c-13.6,0-24.2,10.4-24.2,24c0,13.6,10.5,24,24.2,24C96.7,56.9,107.2,46.5,107.2,32.9z"/>
<path d="M165.7,64.5l-22-27.7v27.7h-9.4v-63h20.6c10.5,0,19,7.7,19,17.9c0,10.2-8.2,17.8-18.5,18l21.7,27H165.7z M143.7,10.4v18.1
	H155c5.4,0,9.6-3.8,9.6-9.1c0-5.2-4.1-9-9.6-9H143.7z"/>
<path d="M260.6,0.1v64.4h-9.4V19.6l-22.2,18.5l-22.3-18.6v45h-9.4V0.1h0.2l31.5,26.2l31.4-26.2H260.6z"/>
<path d="M317.6,46.3H294l-8.4,18.1h-9.6l29.8-64.4h0.2l29.8,64.4H326L317.6,46.3z M313.5,37.4l-7.8-16.8L298,37.4H313.5z"/>
<path d="M349.3,55.5h18.6c5.3,0,9.6-3.8,9.6-9c0-5.3-4.2-9.1-9.6-9.1h-2.3c-10.5,0-19-7.7-19-18c0-10.3,8.6-17.9,19-17.9h18.4v8.9
	h-18.5c-5.3,0-9.6,3.8-9.6,9c0,5.3,4.2,9.1,9.6,9.1h2.3c10.5,0,19,7.7,19,18c0,10.3-8.6,17.9-19,17.9h-18.5V55.5z"/>
<g>
	<polygon points="34.2,28.5 34.2,37.4 9.1,37.4 9.1,64.5 0,64.5 0,28.4 	"/>
	<polygon points="0,10.4 0,1.4 34.2,1.4 34.2,10.4 	"/>
</g>
<g>
	<g>
		
			<ellipse transform="matrix(0.2298 -0.9732 0.9732 0.2298 318.8979 420.2367)" class="st0" cx="424.9" cy="8.6" rx="8.1" ry="8.1"/>
	</g>
	<g>
		<ellipse transform="matrix(0.2298 -0.9732 0.9732 0.2298 337.619 443.8918)" class="st1" cx="449.3" cy="8.6" rx="8.1" ry="8.1"/>
	</g>
	<g>
		
			<ellipse transform="matrix(0.1602 -0.9871 0.9871 0.1602 389.1664 474.7018)" class="st2" cx="473.6" cy="8.6" rx="8.1" ry="8.1"/>
	</g>
	<g>
		<circle class="st3" cx="424.9" cy="33" r="8.1"/>
	</g>
	<g>
		<circle class="st4" cx="449.3" cy="33" r="8.1"/>
	</g>
	<g>
		<circle class="st5" cx="424.9" cy="57.3" r="8.1"/>
	</g>
</g>
</svg>
